<?xml version="1.0" standalone="no"?>
<!DOCTYPE svg PUBLIC "-//W3C//DTD SVG 1.1//EN" "http://www.w3.org/Graphics/SVG/1.1/DTD/svg11.dtd" >
<svg xmlns="http://www.w3.org/2000/svg" xmlns:xlink="http://www.w3.org/1999/xlink" version="1.1">
<metadata>
Created by FontForge 20160407 at Thu Aug 18 12:25:21 2016
 By Jimmy Warting
(URW)++,Copyright 2000 by (URW)++ Design &#38; Development
</metadata>
<defs>
<font id="NimbusSansDOT-Ligh" horiz-adv-x="539" >
  <font-face 
    font-family="Nimbus Sans D OT"
    font-weight="300"
    font-stretch="normal"
    units-per-em="1000"
    panose-1="2 0 0 0 0 0 0 0 0 0"
    ascent="800"
    descent="-200"
    x-height="480"
    cap-height="667"
    bbox="-176 -250 955 885"
    underline-thickness="44"
    underline-position="-96"
    stemh="44"
    stemv="61"
    unicode-range="U+0020-FB02"
  />
<missing-glyph horiz-adv-x="250" 
 />
    <glyph glyph-name="fi" unicode="fi" horiz-adv-x="479" 
d="M149 480h81v-50h-81v-430h-60v430h-70v50h70v88c0 71 33 106 99 106c7 0 26 -1 42 -3v-52c-14 2 -21 3 -28 3c-44 0 -53 -12 -53 -69v-73zM344 0v480h61v-480h-61zM344 586v81h61v-81h-61z" />
    <glyph glyph-name="fl" unicode="fl" horiz-adv-x="478" 
d="M149 480h81v-50h-81v-430h-60v430h-70v50h70v88c0 71 33 106 99 106c7 0 26 -1 42 -3v-52c-14 2 -21 3 -28 3c-44 0 -53 -12 -53 -69v-73zM345 0v667h60v-667h-60z" />
    <glyph glyph-name=".notdef" horiz-adv-x="250" 
 />
    <glyph glyph-name="space" unicode=" " horiz-adv-x="250" 
 />
    <glyph glyph-name="space" unicode="&#xa0;" horiz-adv-x="250" 
 />
    <glyph glyph-name="exclam" unicode="!" horiz-adv-x="228" 
d="M80 0v85h68v-85h-68zM136 163h-45c-6 125 -11 278 -11 318v186h68v-186c0 -38 -5 -177 -12 -318z" />
    <glyph glyph-name="quotedbl" unicode="&#x22;" horiz-adv-x="326" 
d="M123 400h-48l-8 267h64zM251 400h-48l-8 267h65z" />
    <glyph glyph-name="numbersign" unicode="#" horiz-adv-x="540" 
d="M464 253l-8 -48h-78l-33 -205h-52l33 205h-147l-32 -205h-52l32 205h-78l8 48h78l25 161h-78l8 48h78l33 205h51l-32 -205h146l33 205h52l-33 -205h77l-7 -48h-77l-26 -161h79zM359 414h-147l-25 -161h146z" />
    <glyph glyph-name="dollar" unicode="$" 
d="M48 203h63c3 -91 49 -143 134 -152v275c-69 16 -95 25 -119 42c-38 27 -59 77 -59 136c0 103 57 160 178 175v88h48v-88c102 -4 171 -68 178 -167h-60c-8 72 -47 110 -118 116v-251c70 -17 101 -27 127 -42c46 -27 71 -76 71 -141c0 -115 -72 -186 -198 -195v-87h-48v87
c-122 7 -196 83 -197 204zM293 317v-267c44 7 65 14 87 31c31 24 49 64 49 109c0 48 -21 85 -59 103c-20 9 -28 12 -77 24zM245 387v241c-77 -10 -117 -51 -117 -120c0 -40 16 -76 42 -93c18 -11 31 -17 75 -28z" />
    <glyph glyph-name="percent" unicode="%" horiz-adv-x="682" 
d="M152 670c77 0 119 -60 119 -170s-42 -170 -119 -170c-78 0 -119 59 -119 172c0 108 42 168 119 168zM152 629c-46 0 -71 -46 -71 -128c0 -85 25 -130 71 -130s71 46 71 129s-25 129 -71 129zM99 0l426 667h57l-425 -667h-58zM529 337c77 0 119 -60 119 -170
s-42 -170 -119 -170c-78 0 -119 59 -119 172c0 108 42 168 119 168zM529 296c-46 0 -71 -46 -71 -128c0 -85 25 -130 71 -130s71 46 71 129s-25 129 -71 129z" />
    <glyph glyph-name="ampersand" unicode="&#x26;" horiz-adv-x="609" 
d="M495 307h60c-9 -70 -23 -120 -48 -171l109 -136h-69l-73 87c-68 -70 -121 -94 -205 -94c-128 0 -212 80 -212 200c0 89 46 149 157 204c-49 65 -64 98 -64 143c0 75 64 134 147 134c80 0 134 -53 134 -131c0 -38 -12 -72 -35 -99c-16 -19 -30 -29 -74 -54
c-6 -4 -12 -7 -18 -10l165 -198c16 31 25 76 26 125zM436 132l-189 225c-52 -28 -74 -44 -92 -65c-23 -28 -35 -62 -35 -98c0 -87 66 -150 158 -150c64 0 118 30 158 88zM269 421c5 2 5 3 13 6c63 28 92 63 92 111s-31 81 -78 81c-49 0 -86 -34 -86 -79
c0 -33 18 -69 59 -119z" />
    <glyph glyph-name="quoteright" unicode="&#x2019;" horiz-adv-x="217" 
d="M142 667v-69c0 -81 -18 -116 -67 -134v38c24 11 32 29 32 72v13h-32v80h67z" />
    <glyph glyph-name="parenleft" unicode="(" horiz-adv-x="293" 
d="M229 -120h-46c-94 143 -131 255 -131 397c0 141 47 283 131 396h46c-29 -42 -44 -70 -64 -120c-38 -92 -50 -160 -50 -275c0 -156 34 -274 114 -398z" />
    <glyph glyph-name="parenright" unicode=")" horiz-adv-x="293" 
d="M63 673h46c93 -138 131 -255 131 -396c0 -142 -45 -277 -131 -397h-46c80 119 114 236 114 396c0 156 -35 277 -114 397z" />
    <glyph glyph-name="asterisk" unicode="*" horiz-adv-x="389" 
d="M345 543l-117 -38l73 -98l-34 -25l-73 99l-76 -99l-34 25l76 98l-117 38l14 41l115 -41v124h44l-1 -124l116 41z" />
    <glyph glyph-name="plus" unicode="+" 
d="M93 360h148v150h57v-150h148v-53h-148v-150h-57v150h-148v53z" />
    <glyph glyph-name="comma" unicode="," horiz-adv-x="217" 
d="M143 84v-73c0 -85 -18 -122 -70 -140v40c25 11 34 30 34 75c0 2 0 8 -1 14h-33v84h70z" />
    <glyph glyph-name="hyphen" unicode="-" horiz-adv-x="213" 
d="M0 212v57h213v-57h-213z" />
    <glyph glyph-name="hyphen" unicode="&#xad;" horiz-adv-x="213" 
d="M0 212v57h213v-57h-213z" />
    <glyph glyph-name="period" unicode="." horiz-adv-x="217" 
d="M73 0v83h70v-83h-70z" />
    <glyph glyph-name="slash" unicode="/" horiz-adv-x="433" 
d="M32 -120l303 793h57l-304 -793h-56z" />
    <glyph glyph-name="zero" unicode="0" 
d="M270 674c141 0 216 -118 216 -340c0 -223 -75 -341 -216 -341c-77 0 -140 39 -174 108c-31 62 -43 129 -43 237c0 218 76 336 217 336zM270 617c-54 0 -101 -35 -121 -89c-19 -48 -30 -122 -30 -192c0 -75 11 -147 30 -197c20 -54 67 -89 121 -89c53 0 100 35 120 89
c19 50 30 122 30 194c0 73 -11 148 -30 195c-21 54 -68 89 -120 89z" />
    <glyph glyph-name="one" unicode="1" 
d="M277 0v501h-157v40h7c35 0 66 5 90 15c49 20 69 51 74 111h47v-667h-61z" />
    <glyph glyph-name="two" unicode="2" 
d="M481 57v-57h-424c1 135 48 202 205 291c124 72 155 110 155 193c0 87 -48 133 -138 133c-61 0 -104 -25 -126 -72c-10 -22 -15 -45 -17 -95h-66c6 143 83 224 212 224c121 0 201 -74 201 -187c0 -59 -20 -109 -59 -150c-29 -31 -53 -48 -130 -93
c-122 -69 -168 -120 -169 -187h356z" />
    <glyph glyph-name="three" unicode="3" 
d="M52 198h64c3 -41 9 -63 23 -85c24 -39 73 -63 127 -63c90 0 154 59 154 142c0 86 -57 136 -154 136c-14 0 -25 -1 -45 -2v51c14 -2 21 -3 34 -3c92 0 146 47 146 126c0 71 -51 116 -130 116c-58 0 -105 -24 -125 -65c-12 -24 -16 -44 -17 -85h-63v11
c0 117 84 197 206 197c114 0 193 -69 193 -169c0 -68 -29 -115 -92 -148c77 -27 113 -78 113 -158c0 -121 -91 -206 -220 -206c-104 0 -182 54 -207 142c-6 22 -7 29 -7 63z" />
    <glyph glyph-name="four" unicode="4" 
d="M342 0v166h-293v53l299 448h54v-448h93v-53h-93v-166h-60zM114 219h228v349z" />
    <glyph glyph-name="five" unicode="5" 
d="M54 178h64c7 -80 60 -128 141 -128c99 0 159 63 159 169c0 99 -56 157 -152 157c-63 0 -102 -19 -136 -65h-54l54 356h322v-57h-277l-34 -215c52 29 88 39 139 39c126 0 205 -83 205 -214c0 -138 -86 -227 -220 -227c-119 0 -199 70 -211 185z" />
    <glyph glyph-name="six" unicode="6" 
d="M475 509h-66c-10 72 -50 108 -121 108c-60 0 -104 -26 -131 -80c-26 -49 -40 -110 -40 -170l1 -29c40 59 92 87 164 87c119 0 204 -88 204 -212c0 -132 -84 -220 -210 -220c-71 0 -131 27 -166 75c-40 56 -57 125 -57 239c0 102 11 172 38 234c37 85 108 133 198 133
c61 0 118 -26 151 -68c20 -26 28 -50 35 -97zM275 369c-90 0 -148 -63 -148 -160c0 -100 55 -159 146 -159c90 0 146 61 146 160c0 98 -56 159 -144 159z" />
    <glyph glyph-name="seven" unicode="7" 
d="M222 0h-69c15 96 38 180 73 271c59 145 79 182 177 317c3 4 6 9 10 13l6 9h-356v57h422v-57c-130 -141 -239 -397 -263 -610z" />
    <glyph glyph-name="eight" unicode="8" 
d="M166 361c-68 40 -91 74 -91 136c0 104 81 177 196 177c112 0 189 -67 189 -165c0 -68 -29 -114 -92 -144c83 -28 123 -84 123 -170c0 -120 -89 -202 -220 -202c-128 0 -223 86 -223 202c0 76 35 126 118 166zM271 335c-94 0 -157 -56 -157 -141c0 -88 60 -144 154 -144
c92 0 156 59 156 146c0 85 -59 139 -153 139zM271 617c-79 0 -132 -46 -132 -115c0 -71 50 -118 128 -118c75 0 130 51 130 123c0 67 -49 110 -126 110z" />
    <glyph glyph-name="nine" unicode="9" 
d="M63 157h66c11 -72 51 -107 122 -107c60 0 104 26 131 79c26 50 40 110 40 171c0 3 -1 16 -2 28c-39 -59 -92 -87 -163 -87c-119 0 -204 89 -204 212c0 133 84 221 210 221c71 0 131 -27 166 -75c40 -56 57 -125 57 -239c0 -103 -11 -173 -38 -235
c-37 -84 -109 -132 -198 -132c-62 0 -119 26 -151 67c-20 26 -29 50 -36 97zM266 617c-90 0 -146 -61 -146 -160c0 -98 55 -160 144 -160s147 63 147 161c0 99 -54 159 -145 159z" />
    <glyph glyph-name="colon" unicode=":" horiz-adv-x="217" 
d="M73 350v83h70v-83h-70zM73 0v83h70v-83h-70z" />
    <glyph glyph-name="semicolon" unicode=";" horiz-adv-x="217" 
d="M143 84v-73c0 -85 -18 -122 -70 -140v40c25 11 34 30 34 75c0 2 0 8 -1 14h-33v84h70zM73 350v83h70v-83h-70z" />
    <glyph glyph-name="less" unicode="&#x3c;" horiz-adv-x="500" 
d="M466 562v-65l-364 -164l364 -164v-64l-433 200v57z" />
    <glyph glyph-name="equal" unicode="=" 
d="M97 431h346v-53h-346v53zM97 290h346v-53h-346v53z" />
    <glyph glyph-name="greater" unicode="&#x3e;" horiz-adv-x="500" 
d="M34 562l433 -200v-57l-433 -200v64l364 164l-364 164v65z" />
    <glyph glyph-name="question" unicode="?" horiz-adv-x="457" 
d="M189 0v83h67v-83h-67zM251 165h-56c-1 93 19 139 88 194c64 55 82 85 82 139c0 78 -48 122 -131 122c-54 0 -94 -19 -118 -58c-17 -27 -23 -53 -23 -102h-63c8 145 75 214 206 214c117 0 192 -68 192 -174c0 -44 -15 -82 -45 -117c-20 -22 -23 -25 -80 -75
c-44 -41 -52 -61 -52 -143z" />
    <glyph glyph-name="at" unicode="@" horiz-adv-x="705" 
d="M484 494h49l-41 -213c-4 -20 -6 -36 -7 -47c-1 -28 16 -48 39 -48c60 0 116 94 116 195c0 147 -113 253 -271 253c-169 0 -300 -132 -300 -302c0 -80 30 -156 82 -211c57 -60 130 -88 228 -88c78 0 142 14 212 48l15 -44c-72 -34 -144 -49 -227 -49
c-107 0 -194 33 -259 98c-63 63 -100 154 -100 247c0 195 153 346 348 346c182 0 317 -127 317 -297c0 -126 -77 -238 -163 -238c-41 0 -69 27 -73 69c-30 -47 -74 -72 -125 -72c-82 0 -141 68 -141 162c0 112 79 203 176 203c56 0 92 -25 112 -79zM363 455
c-68 0 -125 -69 -125 -151c0 -68 39 -114 96 -114c66 0 118 71 118 163c0 63 -34 102 -89 102z" />
    <glyph glyph-name="A" unicode="A" horiz-adv-x="619" 
d="M13 0l262 667h70l261 -667h-70l-80 211h-294l-79 -211h-70zM182 263h256l-129 341z" />
    <glyph glyph-name="B" unicode="B" horiz-adv-x="631" 
d="M80 0v667h255c74 0 102 -4 134 -19c53 -25 85 -80 85 -147c0 -70 -28 -113 -95 -147c87 -28 125 -77 125 -162c0 -84 -41 -150 -110 -176c-32 -12 -61 -16 -130 -16h-264zM147 56h197c57 0 82 3 108 14c47 19 69 55 69 116c0 68 -27 109 -83 125c-22 7 -45 9 -95 9h-196
v-264zM147 372h178c55 0 74 2 96 10c43 16 70 59 70 112c0 55 -26 95 -69 109c-22 6 -42 8 -99 8h-176v-239z" />
    <glyph glyph-name="C" unicode="C" horiz-adv-x="667" 
d="M565 237h64c-23 -158 -125 -250 -279 -250c-185 0 -298 133 -298 352c0 87 19 157 61 219c56 82 135 122 246 122c139 0 227 -69 260 -203h-65c-31 98 -96 146 -198 146c-148 0 -237 -110 -237 -293c0 -174 91 -286 233 -286c113 0 198 77 213 193z" />
    <glyph glyph-name="D" unicode="D" horiz-adv-x="662" 
d="M80 0v667h209c120 0 155 -6 200 -36c79 -53 121 -153 121 -291c0 -148 -47 -256 -135 -307c-42 -25 -84 -33 -170 -33h-225zM148 57h152c84 0 118 9 155 39c56 45 88 136 88 247c0 120 -39 209 -107 245c-33 18 -60 22 -144 22h-144v-553z" />
    <glyph glyph-name="E" unicode="E" horiz-adv-x="578" 
d="M80 0v667h448v-57h-381v-241h350v-54h-350v-259h390v-56h-457z" />
    <glyph glyph-name="F" unicode="F" horiz-adv-x="533" 
d="M80 0v667h423v-57h-356v-242h309v-53h-309v-315h-67z" />
    <glyph glyph-name="G" unicode="G" horiz-adv-x="703" 
d="M355 343h281v-343h-51v111c-68 -90 -134 -124 -235 -124c-179 0 -298 138 -298 344c0 211 120 349 305 349c148 0 251 -80 273 -211h-64c-24 101 -95 154 -208 154c-149 0 -239 -108 -239 -288c0 -178 92 -292 237 -292c109 0 194 70 217 178c5 23 5 23 5 68h-223v54z
" />
    <glyph glyph-name="H" unicode="H" horiz-adv-x="659" 
d="M80 0v667h66v-287h366v287h67v-667h-67v326h-366v-326h-66z" />
    <glyph glyph-name="I" unicode="I" horiz-adv-x="228" 
d="M80 0v667h68v-667h-68z" />
    <glyph glyph-name="J" unicode="J" horiz-adv-x="452" 
d="M11 215h64c0 -67 3 -92 16 -116c19 -36 56 -55 107 -55c55 0 92 23 106 64c8 22 9 38 9 100v459h66v-470c0 -63 -7 -101 -26 -133c-29 -51 -82 -77 -157 -77c-123 0 -186 65 -186 192c0 7 0 23 1 36z" />
    <glyph glyph-name="K" unicode="K" horiz-adv-x="615" 
d="M80 0v667h66v-344l362 344h89l-295 -276l299 -391h-79l-265 348l-111 -104v-244h-66z" />
    <glyph glyph-name="L" unicode="L" horiz-adv-x="511" 
d="M80 0v667h67v-611h347v-56h-414z" />
    <glyph glyph-name="M" unicode="M" horiz-adv-x="782" 
d="M80 0v667h81l232 -589l229 589h80v-667h-60v561l-217 -561h-63l-224 561v-561h-58z" />
    <glyph glyph-name="N" unicode="N" horiz-adv-x="664" 
d="M80 0v667h66l379 -570v570h59v-667h-66l-379 571v-571h-59z" />
    <glyph glyph-name="O" unicode="O" horiz-adv-x="720" 
d="M360 680c109 0 184 -36 239 -114c46 -64 69 -145 69 -239c0 -207 -120 -340 -307 -340c-191 0 -309 132 -309 345c0 88 25 172 69 234c56 78 132 114 239 114zM360 623c-149 0 -241 -110 -241 -288c0 -182 91 -291 242 -291c148 0 240 110 240 287
c0 182 -91 292 -241 292z" />
    <glyph glyph-name="P" unicode="P" horiz-adv-x="580" 
d="M80 0v667h239c83 0 111 -5 146 -24c52 -29 82 -88 82 -163c0 -85 -38 -147 -107 -173c-32 -12 -65 -16 -143 -16h-151v-291h-66zM146 349h150c62 0 88 2 111 10c47 16 73 59 73 122c0 61 -22 100 -66 117c-22 8 -48 11 -93 11h-175v-260z" />
    <glyph glyph-name="Q" unicode="Q" horiz-adv-x="721" 
d="M569 62l86 -65l-34 -43l-95 77c-52 -31 -104 -44 -168 -44c-186 0 -306 133 -306 338c0 100 28 190 81 256c52 65 128 99 225 99c104 0 175 -32 232 -103c52 -67 80 -151 80 -242c0 -58 -13 -127 -32 -172c-16 -36 -33 -60 -69 -101zM440 165l81 -63c57 62 81 129 81 230
c0 181 -91 291 -242 291c-78 0 -143 -30 -182 -84c-37 -51 -58 -126 -58 -208c0 -177 92 -288 240 -288c47 0 81 9 113 28l-66 53z" />
    <glyph glyph-name="R" unicode="R" horiz-adv-x="635" 
d="M80 0v667h270c71 0 112 -7 143 -25c51 -28 80 -85 80 -155c0 -77 -33 -128 -103 -159c68 -38 75 -56 82 -192c7 -105 8 -107 38 -136h-80c-11 32 -13 41 -17 107c-7 109 -19 153 -49 175c-21 16 -41 19 -111 19h-187v-301h-66zM146 355h179c50 0 80 3 103 10
c49 15 78 60 78 123c0 62 -29 103 -83 116c-19 4 -44 6 -96 6h-181v-255z" />
    <glyph glyph-name="S" unicode="S" horiz-adv-x="582" 
d="M40 221h65c8 -120 70 -177 191 -177c109 0 175 52 175 138c0 40 -15 69 -46 87c-31 19 -69 30 -164 49c-85 18 -128 34 -156 59c-30 27 -48 71 -48 119c0 113 88 184 230 184c147 0 224 -64 237 -197h-67c-1 44 -8 65 -29 88c-31 35 -76 52 -141 52
c-101 0 -164 -48 -164 -126c0 -68 39 -98 162 -121c103 -19 143 -31 181 -54c44 -27 70 -76 70 -132c0 -121 -98 -203 -241 -203c-97 0 -173 33 -215 93c-28 40 -39 78 -40 141z" />
    <glyph glyph-name="T" unicode="T" horiz-adv-x="532" 
d="M234 0v610h-217v57h499v-57h-215v-610h-67z" />
    <glyph glyph-name="U" unicode="U" horiz-adv-x="639" 
d="M73 667h67v-427c0 -69 4 -93 22 -123c28 -46 85 -73 157 -73c83 0 142 33 166 93c10 28 13 50 13 110v420h67v-425c0 -71 -11 -119 -35 -157c-41 -63 -117 -98 -213 -98c-107 0 -190 43 -223 116c-15 32 -21 70 -21 134v430z" />
    <glyph glyph-name="V" unicode="V" horiz-adv-x="565" 
d="M245 0l-232 667h68l199 -587l207 587h65l-242 -667h-65z" />
    <glyph glyph-name="W" unicode="W" horiz-adv-x="829" 
d="M186 0l-173 667h69l141 -573l153 573h79l150 -583l145 583h65l-175 -667h-74l-152 571l-157 -571h-71z" />
    <glyph glyph-name="X" unicode="X" horiz-adv-x="549" 
d="M10 0l227 337l-223 330h79l182 -274l185 274h73l-222 -330l228 -337h-79l-185 280l-187 -280h-78z" />
    <glyph glyph-name="Y" unicode="Y" horiz-adv-x="578" 
d="M257 0v293l-250 374h82l202 -311l204 311h76l-247 -374v-293h-67z" />
    <glyph glyph-name="Z" unicode="Z" horiz-adv-x="568" 
d="M541 0h-513v40l430 570h-394v57h469v-56l-417 -554h425v-57z" />
    <glyph glyph-name="bracketleft" unicode="[" horiz-adv-x="295" 
d="M73 -113v780h155v-49h-99v-682h99v-49h-155z" />
    <glyph glyph-name="backslash" unicode="\" horiz-adv-x="433" 
d="M412 -120h-56l-304 793h57z" />
    <glyph glyph-name="bracketright" unicode="]" horiz-adv-x="295" 
d="M222 667v-780h-155v49h99v682h-99v49h155z" />
    <glyph glyph-name="asciicircum" unicode="^" horiz-adv-x="500" 
d="M96 379h-62l178 289h75l178 -289h-63l-153 245z" />
    <glyph glyph-name="underscore" unicode="_" horiz-adv-x="500" 
d="M0 -74h500v-44h-500v44z" />
    <glyph glyph-name="quoteleft" unicode="&#x2018;" horiz-adv-x="217" 
d="M73 480v73c0 85 18 122 70 140v-40c-25 -11 -34 -30 -34 -75c0 -2 0 -8 1 -14h33v-84h-70z" />
    <glyph glyph-name="a" unicode="a" horiz-adv-x="507" 
d="M486 41v-41c-21 -7 -31 -9 -45 -9c-47 0 -65 19 -70 75c-54 -59 -99 -79 -174 -79c-97 0 -154 51 -154 137c0 40 12 74 36 98c27 28 54 39 121 49l119 18c51 7 54 10 54 59c0 66 -37 94 -122 94c-82 0 -117 -30 -123 -105h-65c7 101 72 156 187 156c76 0 135 -23 162 -63
c16 -24 19 -43 19 -106v-240c0 -36 7 -47 29 -47c7 0 13 1 26 4zM371 248l-164 -25c-74 -12 -104 -39 -104 -96c0 -56 39 -89 103 -89c58 0 109 23 140 64c19 24 25 52 25 108v38z" />
    <glyph glyph-name="b" unicode="b" horiz-adv-x="547" 
d="M73 0v667h60v-258c49 60 94 84 160 84c128 0 208 -97 208 -251c0 -153 -85 -255 -212 -255c-63 0 -106 22 -156 79v-66h-60zM292 442c-49 0 -95 -23 -124 -61c-24 -33 -35 -77 -35 -138c0 -64 8 -103 30 -138c27 -43 72 -68 122 -68c96 0 156 80 156 208
c0 126 -54 197 -149 197z" />
    <glyph glyph-name="c" unicode="c" horiz-adv-x="494" 
d="M400 165h59c-27 -117 -96 -178 -201 -178c-128 0 -212 98 -212 247c0 156 89 259 224 259c105 0 175 -61 190 -164h-60c-8 72 -54 111 -129 111c-102 0 -164 -76 -164 -202c0 -121 62 -198 159 -198c75 0 125 46 134 125z" />
    <glyph glyph-name="d" unicode="d" horiz-adv-x="547" 
d="M474 0h-60v66c-50 -57 -93 -79 -156 -79c-127 0 -212 102 -212 255c0 154 80 251 208 251c66 0 111 -24 160 -84v258h60v-667zM254 442c-95 0 -148 -71 -148 -197c0 -128 60 -208 156 -208c50 0 95 25 122 68c21 34 30 74 30 132c0 68 -10 109 -35 144
c-28 38 -75 61 -125 61z" />
    <glyph glyph-name="e" unicode="e" horiz-adv-x="511" 
d="M404 150h61c-16 -41 -26 -61 -43 -85c-36 -49 -96 -78 -165 -78c-131 0 -211 93 -211 245c0 158 84 261 215 261c99 0 168 -55 192 -151c6 -25 8 -43 12 -111h-362c1 -125 57 -194 156 -194c76 0 127 39 145 113zM106 282h298c-5 103 -55 161 -141 161
c-51 0 -97 -23 -124 -64c-18 -28 -26 -50 -33 -97z" />
    <glyph glyph-name="f" unicode="f" horiz-adv-x="258" 
d="M149 480h81v-50h-81v-430h-60v430h-70v50h70v88c0 71 33 106 99 106c7 0 26 -1 42 -3v-52c-14 2 -21 3 -28 3c-44 0 -53 -12 -53 -69v-73z" />
    <glyph glyph-name="g" unicode="g" horiz-adv-x="546" 
d="M473 480v-399c0 -87 -7 -130 -25 -164c-33 -59 -101 -91 -191 -91c-110 0 -175 44 -188 127h61c2 -22 7 -34 21 -47c21 -20 67 -34 111 -34c51 0 96 18 121 51c22 27 27 51 29 134l1 24c-52 -60 -91 -80 -157 -80c-128 0 -210 96 -210 245c0 147 85 247 210 247
c67 0 116 -26 157 -81v68h60zM263 443c-97 0 -158 -76 -158 -197c0 -122 59 -196 156 -196c98 0 156 74 156 198c0 125 -55 195 -154 195z" />
    <glyph glyph-name="h" unicode="h" horiz-adv-x="526" 
d="M73 0v667h60v-245c56 57 87 71 154 71c80 0 135 -32 155 -92c8 -24 10 -41 10 -104v-297h-60v307c0 49 -2 64 -12 84c-17 33 -54 52 -102 52c-61 0 -110 -31 -132 -84c-7 -17 -13 -61 -13 -93v-266h-60z" />
    <glyph glyph-name="i" unicode="i" horiz-adv-x="207" 
d="M73 0v480h60v-480h-60zM73 586v81h60v-81h-60z" />
    <glyph glyph-name="j" unicode="j" horiz-adv-x="210" 
d="M77 480h60v-495c0 -72 -5 -99 -22 -121c-16 -21 -44 -32 -85 -32c-4 0 -12 0 -21 1v52c11 -2 15 -2 20 -2c22 0 36 11 43 31c4 13 5 25 5 73v493zM77 585v82h60v-82h-60z" />
    <glyph glyph-name="k" unicode="k" horiz-adv-x="489" 
d="M73 0v667h60v-411l236 224h82l-191 -176l208 -304h-74l-175 266l-86 -79v-187h-60z" />
    <glyph glyph-name="l" unicode="l" horiz-adv-x="207" 
d="M73 0v667h60v-667h-60z" />
    <glyph glyph-name="m" unicode="m" horiz-adv-x="784" 
d="M73 0v480h60v-52c39 45 80 65 136 65c66 0 110 -26 139 -82c35 56 83 82 153 82c71 0 122 -31 141 -86c7 -22 9 -41 9 -91v-316h-60v314c0 37 -2 56 -8 74c-12 36 -44 55 -93 55c-61 0 -104 -32 -120 -90c-5 -19 -7 -42 -7 -74v-279h-60v292c0 55 -2 76 -8 95
c-13 37 -43 56 -89 56c-67 0 -113 -37 -127 -101c-4 -23 -6 -44 -6 -87v-255h-60z" />
    <glyph glyph-name="n" unicode="n" horiz-adv-x="526" 
d="M73 0v480h60v-58c47 53 86 71 154 71c80 0 134 -32 155 -92c7 -22 10 -45 10 -91v-310h-60v307c0 48 -3 65 -12 84c-17 33 -54 52 -102 52c-62 0 -111 -31 -133 -84c-9 -24 -12 -44 -12 -93v-266h-60z" />
    <glyph glyph-name="o" unicode="o" horiz-adv-x="535" 
d="M268 493c133 0 221 -103 221 -259c0 -152 -85 -247 -221 -247c-138 0 -222 94 -222 250c0 153 89 256 222 256zM268 442c-100 0 -162 -79 -162 -205s59 -199 162 -199c101 0 161 73 161 196c0 129 -62 208 -161 208z" />
    <glyph glyph-name="p" unicode="p" horiz-adv-x="547" 
d="M133 -172h-60v652h60v-69c44 59 90 82 159 82c122 0 208 -104 208 -249c0 -66 -21 -136 -54 -182c-35 -48 -95 -75 -164 -75c-66 0 -109 21 -149 74v-233zM287 443c-52 0 -97 -24 -126 -65c-22 -32 -31 -73 -31 -134c0 -64 10 -110 31 -144c25 -39 70 -63 121 -63
c96 0 158 79 158 202c0 128 -57 204 -153 204z" />
    <glyph glyph-name="q" unicode="q" horiz-adv-x="547" 
d="M413 -172v233c-40 -53 -82 -74 -149 -74c-69 0 -129 27 -164 75c-33 46 -54 116 -54 182c0 145 86 249 208 249c69 0 115 -23 159 -82v69h60v-652h-60zM259 443c-94 0 -153 -77 -153 -200c0 -128 60 -206 158 -206c51 0 97 24 121 63c21 34 31 80 31 144
c0 61 -9 101 -31 134c-28 41 -75 65 -126 65z" />
    <glyph glyph-name="r" unicode="r" horiz-adv-x="316" 
d="M73 0v480h60v-80c37 65 73 88 134 88c8 0 14 -1 24 -3v-58c-9 1 -17 2 -21 2c-50 0 -97 -35 -120 -89c-13 -30 -17 -56 -17 -115v-225h-60z" />
    <glyph glyph-name="s" unicode="s" horiz-adv-x="455" 
d="M40 151h60c6 -75 52 -112 138 -112c74 0 119 36 119 94c0 31 -14 48 -51 63c-22 9 -32 11 -126 32c-88 19 -127 58 -127 126c0 86 67 139 175 139c110 0 169 -49 180 -150h-59c-13 70 -46 95 -125 95c-69 0 -111 -29 -111 -78c0 -27 14 -49 38 -61c20 -9 26 -11 101 -28
c68 -16 89 -23 114 -38c33 -19 51 -52 51 -96c0 -92 -72 -150 -186 -150c-121 0 -191 60 -191 164z" />
    <glyph glyph-name="t" unicode="t" horiz-adv-x="258" 
d="M222 50v-39c-21 -10 -38 -14 -61 -14c-37 0 -63 16 -71 45c-4 12 -4 17 -4 64v324h-69v50h69v142h60v-142h76v-50h-76v-338c0 -25 1 -30 5 -37c6 -9 19 -15 33 -15c11 0 21 3 38 10z" />
    <glyph glyph-name="u" unicode="u" horiz-adv-x="526" 
d="M452 480v-480h-60v58c-47 -53 -86 -71 -154 -71c-80 0 -134 32 -155 92c-8 24 -10 42 -10 104v297h60v-300c0 -57 2 -70 12 -91c17 -33 54 -52 102 -52c49 0 90 19 116 54c20 28 29 60 29 109v280h60z" />
    <glyph glyph-name="v" unicode="v" horiz-adv-x="436" 
d="M185 0l-178 480h66l145 -404l147 404h65l-184 -480h-61z" />
    <glyph glyph-name="w" unicode="w" horiz-adv-x="653" 
d="M155 0l-148 480h64l116 -389l109 389h62l105 -389l121 389h63l-154 -480h-60l-106 383l-112 -383h-60z" />
    <glyph glyph-name="x" unicode="x" horiz-adv-x="441" 
d="M3 0l183 251l-166 229h71l128 -186l131 186h71l-169 -229l185 -251h-72l-146 205l-145 -205h-71z" />
    <glyph glyph-name="y" unicode="y" horiz-adv-x="440" 
d="M60 -168v53c19 -5 29 -7 40 -7c32 0 55 22 72 66l23 62l-188 474h65l151 -399l149 399h62l-218 -561c-27 -69 -55 -91 -116 -91c-13 0 -22 1 -40 4z" />
    <glyph glyph-name="z" unicode="z" horiz-adv-x="428" 
d="M411 0h-382v44l294 382h-272v54h348v-41l-292 -385h304v-54z" />
    <glyph glyph-name="braceleft" unicode="{" horiz-adv-x="304" 
d="M154 525v-135c0 -63 -13 -91 -50 -114c37 -22 50 -52 50 -116v-127c0 -40 5 -63 19 -77c9 -10 32 -18 52 -18h13v-51h-14c-91 0 -125 40 -125 149v124c0 58 -13 82 -52 95v47c38 11 52 37 52 91v138c0 96 37 136 126 136h13v-51h-13c-51 0 -71 -26 -71 -91z" />
    <glyph glyph-name="bar" unicode="|" horiz-adv-x="500" 
d="M218 667h65v-834h-65v834z" />
    <glyph glyph-name="braceright" unicode="}" horiz-adv-x="304" 
d="M151 29v135c0 63 13 91 50 114c-37 22 -50 52 -50 116v127c0 40 -5 63 -19 77c-9 10 -32 18 -52 18h-13v51h14c91 0 125 -40 125 -149v-124c0 -58 13 -82 52 -95v-47c-38 -11 -52 -37 -52 -91v-138c0 -96 -37 -136 -126 -136h-13v51h13c51 0 71 26 71 91z" />
    <glyph glyph-name="asciitilde" unicode="~" horiz-adv-x="667" 
d="M131 586l-36 28c37 73 78 107 132 107c29 0 59 -10 116 -40c58 -29 74 -35 99 -35c36 0 63 22 95 77l36 -27c-38 -76 -78 -109 -132 -109c-28 0 -53 9 -117 42c-54 27 -73 34 -99 34c-36 0 -61 -20 -94 -77z" />
    <glyph glyph-name="exclamdown" unicode="&#xa1;" horiz-adv-x="228" 
d="M148 547v-85h-68v85h68zM92 383h45c6 -125 11 -277 11 -317v-186h-68v186c0 37 5 176 12 317z" />
    <glyph glyph-name="cent" unicode="&#xa2;" 
d="M415 257h60c-16 -98 -84 -167 -172 -177v-90h-45v90c-65 7 -103 25 -137 66c-39 45 -59 108 -59 182c0 87 27 158 78 205c32 29 63 42 118 51v90h45v-90c97 -5 160 -65 172 -163h-60c-4 69 -42 106 -112 111v-399c64 9 106 55 112 124zM258 134v396
c-45 -7 -69 -21 -92 -51c-29 -37 -45 -90 -45 -149c0 -55 13 -102 38 -138c25 -35 51 -51 99 -58z" />
    <glyph glyph-name="sterling" unicode="&#xa3;" 
d="M464 81l32 -51c-38 -29 -78 -43 -120 -43c-24 0 -32 2 -92 20c-38 12 -68 18 -94 18c-39 0 -70 -10 -117 -38l-31 43c70 43 110 103 110 166c0 33 -10 72 -28 108h-82v39h66c-2 4 -4 9 -5 13c-26 62 -31 83 -31 121c0 115 89 197 213 197c78 0 138 -32 174 -93
c16 -28 24 -57 29 -114h-66c-1 95 -51 149 -138 149c-84 0 -145 -56 -145 -133c0 -38 12 -80 38 -140h173v-39h-157c12 -41 17 -65 17 -93c0 -49 -18 -87 -68 -149c36 12 49 14 73 14c25 0 41 -3 82 -14c46 -12 66 -16 84 -16c29 0 52 10 83 35z" />
    <glyph glyph-name="fraction" unicode="&#x2044;" horiz-adv-x="131" 
d="M-176 0l426 667h57l-425 -667h-58z" />
    <glyph glyph-name="fraction" unicode="&#x2215;" horiz-adv-x="131" 
d="M-176 0l426 667h57l-425 -667h-58z" />
    <glyph glyph-name="yen" unicode="&#xa5;" 
d="M240 0v241h-205v51h205l-55 80h-150v50h117l-164 245h74l210 -320l208 320h71l-159 -245h117v-50h-149l-53 -80h202v-51h-202v-241h-67z" />
    <glyph glyph-name="florin" unicode="&#x192;" horiz-adv-x="472" 
d="M291 521h97l-8 -43h-97l-70 -403c-19 -114 -28 -138 -66 -174c-33 -32 -80 -50 -132 -50c-21 0 -35 2 -47 7l11 58c13 -3 19 -4 29 -4c40 0 80 15 101 37c19 20 31 55 44 132l70 397h-98l9 43h96l4 21c13 73 33 118 65 151c29 29 70 47 107 47c3 0 8 -1 19 -2l-11 -66
c-8 1 -11 1 -15 1c-27 0 -53 -15 -73 -42c-15 -20 -22 -42 -31 -89z" />
    <glyph glyph-name="section" unicode="&#xa7;" horiz-adv-x="566" 
d="M444 515h-61c-4 75 -38 111 -104 111c-55 0 -92 -31 -92 -77c0 -27 12 -47 39 -68c12 -9 13 -9 107 -63c125 -72 159 -110 159 -177c0 -56 -32 -101 -92 -128c36 -34 48 -59 48 -99c0 -80 -67 -137 -162 -137c-63 0 -113 23 -143 67c-20 28 -27 55 -29 104h63
c4 -79 40 -117 110 -117c57 0 97 33 97 80c0 32 -17 55 -63 86c-20 13 -30 19 -134 80c-82 47 -114 90 -114 151c0 59 31 103 92 128c-29 29 -41 55 -41 90c0 79 64 134 156 134c104 0 163 -59 164 -165zM204 422c-50 -23 -71 -50 -71 -90c0 -24 10 -43 33 -64
c18 -16 31 -24 114 -72c35 -21 46 -28 79 -50c50 22 72 48 72 87c0 28 -16 55 -49 79c-25 19 -52 35 -142 87c-5 3 -18 11 -36 23z" />
    <glyph glyph-name="currency" unicode="&#xa4;" horiz-adv-x="535" 
d="M33 515l39 39l54 -54c40 32 86 47 141 47c56 0 102 -15 141 -47l54 54l40 -39l-56 -55c29 -41 44 -89 44 -140s-15 -99 -44 -140l56 -55l-40 -39l-54 54c-39 -32 -85 -47 -141 -47c-55 0 -101 15 -141 47l-54 -54l-39 39l55 55c-28 42 -43 89 -43 140s15 98 43 140z
M268 496c-96 0 -162 -71 -162 -174c0 -107 65 -178 162 -178c95 0 161 72 161 176s-66 176 -161 176z" />
    <glyph glyph-name="quotesingle" unicode="'" horiz-adv-x="191" 
d="M123 400h-55l-8 267h71z" />
    <glyph glyph-name="quotedblleft" unicode="&#x201c;" horiz-adv-x="340" 
d="M73 480v73c0 85 18 122 70 140v-40c-25 -11 -34 -30 -34 -75c0 -2 0 -8 1 -14h33v-84h-70zM196 480v73c0 85 18 122 70 140v-40c-25 -11 -34 -30 -34 -75c0 -2 0 -8 1 -14h33v-84h-70z" />
    <glyph glyph-name="guillemotleft" unicode="&#xab;" horiz-adv-x="434" 
d="M204 402v-70l-104 -91l104 -90v-73l-157 135v52zM378 402v-70l-104 -91l104 -90v-73l-158 135v52z" />
    <glyph glyph-name="guilsinglleft" unicode="&#x2039;" horiz-adv-x="261" 
d="M204 402v-70l-104 -91l104 -90v-73l-157 135v52z" />
    <glyph glyph-name="guilsinglright" unicode="&#x203a;" horiz-adv-x="261" 
d="M57 78v70l104 91l-104 90v73l157 -135v-52z" />
    <glyph glyph-name="endash" unicode="&#x2013;" 
d="M80 212v57h380v-57h-380z" />
    <glyph glyph-name="dagger" unicode="&#x2020;" 
d="M487 456v-54h-187v-515h-61v515h-188v54h188v211h61v-211h187z" />
    <glyph glyph-name="daggerdbl" unicode="&#x2021;" 
d="M487 456v-54h-187v-250h187v-54h-187v-211h-61v211h-188v54h188v250h-188v54h188v211h61v-211h187z" />
    <glyph glyph-name="periodcentered" unicode="&#xb7;" horiz-adv-x="217" 
d="M73 208v83h70v-83h-70z" />
    <glyph glyph-name="periodcentered" unicode="&#x2219;" horiz-adv-x="217" 
d="M73 208v83h70v-83h-70z" />
    <glyph glyph-name="paragraph" unicode="&#xb6;" 
d="M460 667v-780h-58v722h-71v-722h-58v405h-38c-73 0 -114 12 -145 43c-33 32 -51 84 -51 145c0 59 16 110 45 143c27 31 65 44 129 44h247z" />
    <glyph glyph-name="bullet" unicode="&#x2022;" horiz-adv-x="667" 
d="M336 477c75 0 137 -63 137 -139s-62 -138 -138 -138c-77 0 -139 62 -139 138c0 78 62 139 140 139z" />
    <glyph glyph-name="quotesinglbase" unicode="&#x201a;" horiz-adv-x="217" 
d="M142 80v-69c0 -81 -17 -116 -67 -134v38c24 11 32 29 32 72v13h-32v80h67z" />
    <glyph glyph-name="quotedblbase" unicode="&#x201e;" horiz-adv-x="340" 
d="M266 84v-73c0 -85 -18 -122 -70 -140v40c25 11 34 30 34 75c0 2 0 8 -1 14h-33v84h70zM143 84v-73c0 -85 -18 -122 -70 -140v40c25 11 34 30 34 75c0 2 0 8 -1 14h-33v84h70z" />
    <glyph glyph-name="quotedblright" unicode="&#x201d;" horiz-adv-x="340" 
d="M266 667v-73c0 -85 -18 -122 -70 -140v40c25 11 34 30 34 75c0 2 0 8 -1 14h-33v84h70zM143 667v-73c0 -85 -18 -122 -70 -140v40c25 11 34 30 34 75c0 2 0 8 -1 14h-33v84h70z" />
    <glyph glyph-name="guillemotright" unicode="&#xbb;" horiz-adv-x="434" 
d="M230 78v70l104 91l-104 90v73l158 -135v-52zM57 78v70l104 91l-104 90v73l157 -135v-52z" />
    <glyph glyph-name="ellipsis" unicode="&#x2026;" horiz-adv-x="650" 
d="M73 0v83h70v-83h-70zM290 0v83h70v-83h-70zM506 0v83h70v-83h-70z" />
    <glyph glyph-name="perthousand" unicode="&#x2030;" horiz-adv-x="989" 
d="M152 670c77 0 119 -60 119 -170s-42 -170 -119 -170c-78 0 -119 59 -119 172c0 108 42 168 119 168zM152 629c-46 0 -71 -46 -71 -128c0 -85 25 -130 71 -130s71 46 71 129s-25 129 -71 129zM99 0l426 667h57l-425 -667h-58zM529 337c77 0 119 -60 119 -170
s-42 -170 -119 -170c-78 0 -119 59 -119 172c0 108 42 168 119 168zM529 296c-46 0 -71 -46 -71 -128c0 -85 25 -130 71 -130s71 46 71 129s-25 129 -71 129zM836 337c77 0 119 -60 119 -170s-42 -170 -119 -170c-78 0 -119 59 -119 172c0 108 42 168 119 168zM836 296
c-46 0 -71 -46 -71 -128c0 -85 25 -130 71 -130s71 46 71 129s-25 129 -71 129z" />
    <glyph glyph-name="questiondown" unicode="&#xbf;" horiz-adv-x="457" 
d="M268 547v-83h-67v83h67zM207 382h56c1 -94 -20 -139 -88 -194c-64 -55 -82 -85 -82 -139c0 -78 48 -122 131 -122c54 0 93 19 118 58c16 27 22 53 23 102h62c-8 -145 -74 -214 -205 -214c-117 0 -192 68 -192 174c0 44 15 82 45 117c20 22 23 25 80 75
c44 41 51 61 52 143z" />
    <glyph glyph-name="grave" unicode="`" horiz-adv-x="500" 
d="M304 567h-48l-100 123h80z" />
    <glyph glyph-name="acute" unicode="&#xb4;" horiz-adv-x="500" 
d="M196 567l68 123h80l-100 -123h-48z" />
    <glyph glyph-name="circumflex" unicode="&#x2c6;" horiz-adv-x="500" 
d="M116 567l99 122h71l98 -122h-65l-67 86l-73 -86h-63z" />
    <glyph glyph-name="tilde" unicode="&#x2dc;" horiz-adv-x="500" 
d="M362 676h36c-12 -60 -39 -90 -82 -90c-23 0 -35 4 -97 34c-11 6 -25 9 -34 9c-24 0 -38 -14 -47 -47h-35c10 59 40 91 86 91c17 0 37 -6 62 -18c45 -22 50 -24 66 -24c22 0 37 15 45 45z" />
    <glyph glyph-name="macron" unicode="&#xaf;" horiz-adv-x="500" 
d="M385 649v-45h-270v45h270z" />
    <glyph glyph-name="macron" unicode="&#x2c9;" horiz-adv-x="500" 
d="M385 649v-45h-270v45h270z" />
    <glyph glyph-name="breve" unicode="&#x2d8;" horiz-adv-x="500" 
d="M345 686h40c-12 -77 -60 -119 -137 -119c-76 0 -128 46 -133 119h40c11 -49 42 -73 95 -73c54 0 83 22 95 73z" />
    <glyph glyph-name="dotaccent" unicode="&#x2d9;" horiz-adv-x="500" 
d="M216 584v85h68v-85h-68z" />
    <glyph glyph-name="dieresis" unicode="&#xa8;" horiz-adv-x="500" 
d="M130 584v85h68v-85h-68zM301 584v85h68v-85h-68z" />
    <glyph glyph-name="ring" unicode="&#x2da;" horiz-adv-x="500" 
d="M252 712c45 0 82 -38 82 -83c0 -46 -38 -84 -84 -84c-45 0 -83 38 -83 83c0 47 37 84 85 84zM251 676c-26 0 -47 -21 -47 -47s21 -47 46 -47c26 0 47 21 47 47s-21 47 -46 47z" />
    <glyph glyph-name="cedilla" unicode="&#xb8;" horiz-adv-x="500" 
d="M277 0l-36 -58c14 4 21 5 29 5c41 0 71 -27 71 -63c0 -46 -39 -78 -95 -78c-28 0 -52 5 -88 19l13 28c24 -10 48 -15 69 -15c30 0 53 19 53 43c0 21 -20 36 -46 36c-12 0 -22 -2 -40 -8l-15 14l51 77h34z" />
    <glyph glyph-name="hungarumlaut" unicode="&#x2dd;" horiz-adv-x="500" 
d="M166 567l68 123h61l-88 -123h-41zM271 567l68 123h61l-88 -123h-41z" />
    <glyph glyph-name="ogonek" unicode="&#x2db;" horiz-adv-x="500" 
d="M364 0h44c-34 -20 -39 -23 -49 -34c-19 -18 -27 -35 -27 -53c0 -29 24 -50 58 -50c13 0 24 2 38 8v-40c-15 -6 -30 -9 -48 -9c-54 0 -95 35 -95 81c0 38 26 70 79 97z" />
    <glyph glyph-name="caron" unicode="&#x2c7;" horiz-adv-x="500" 
d="M116 689h63l73 -86l67 86h65l-98 -122h-71z" />
    <glyph glyph-name="emdash" unicode="&#x2014;" horiz-adv-x="640" 
d="M0 212v57h640v-57h-640z" />
    <glyph glyph-name="AE" unicode="&#xc6;" horiz-adv-x="874" 
d="M13 0l257 667h554v-57h-350v-239h322v-53h-322v-261h359v-57h-425v207h-251l-78 -207h-66zM178 261h230v349h-99z" />
    <glyph glyph-name="ordfeminine" unicode="&#xaa;" horiz-adv-x="353" 
d="M326 299v-31c-15 -5 -23 -7 -32 -7c-30 0 -42 11 -47 41c-32 -31 -62 -43 -108 -43c-62 0 -100 32 -100 85c0 24 8 45 24 60c17 17 35 24 78 30l75 10c30 4 31 6 31 32c0 37 -22 52 -75 52c-50 0 -69 -16 -73 -62h-47c4 65 45 99 121 99c43 0 80 -12 99 -31
c14 -15 19 -31 19 -65v-149c0 -20 3 -25 15 -25c5 0 10 1 20 4zM246 413l-100 -14c-44 -7 -62 -22 -62 -54c0 -31 23 -49 61 -49c27 0 50 7 69 21c25 17 32 35 32 77v19z" />
    <glyph glyph-name="Lslash" unicode="&#x141;" horiz-adv-x="511" 
d="M80 259l-73 -56v64l73 55v345h67v-309l184 133v-64l-184 -132v-239h347v-56h-414v259z" />
    <glyph glyph-name="Oslash" unicode="&#xd8;" horiz-adv-x="720" 
d="M47 10l75 86c-48 67 -69 138 -69 234c0 211 120 349 304 349c88 0 158 -25 211 -76l72 81l37 -34l-77 -87c45 -64 68 -144 68 -238c0 -209 -118 -339 -308 -339c-85 0 -142 20 -204 73l-72 -82zM165 146l362 409c-38 43 -95 66 -162 66c-91 0 -159 -34 -198 -100
c-31 -51 -47 -116 -47 -189c0 -72 15 -133 45 -186zM557 513l-359 -406c38 -42 97 -65 165 -65c146 0 238 111 238 287c0 72 -16 138 -44 184z" />
    <glyph glyph-name="OE" unicode="&#x152;" horiz-adv-x="993" 
d="M951 0h-429v70c-43 -59 -93 -83 -172 -83c-93 0 -181 43 -233 114c-42 56 -65 136 -65 228c0 212 118 351 297 351c74 0 124 -22 173 -76v63h422v-57h-356v-241h327v-53h-327v-259h363v-57zM522 248v210c0 53 -10 85 -34 112c-31 35 -80 54 -138 54
c-140 0 -231 -113 -231 -287c0 -176 92 -294 230 -294c62 0 122 28 150 72c20 30 23 48 23 133z" />
    <glyph glyph-name="ordmasculine" unicode="&#xba;" horiz-adv-x="370" 
d="M185 565c86 0 143 -62 143 -157c0 -91 -55 -149 -142 -149c-90 0 -144 57 -144 151c0 92 58 155 143 155zM185 528c-60 0 -98 -46 -98 -118s36 -114 98 -114s98 42 98 112c0 74 -37 120 -98 120z" />
    <glyph glyph-name="ae" unicode="&#xe6;" horiz-adv-x="810" 
d="M118 335h-60c12 102 80 158 191 158c71 0 114 -22 155 -79c49 56 94 79 157 79c87 0 152 -45 182 -126c14 -37 21 -81 21 -140h-352c3 -63 8 -91 23 -118c26 -44 74 -71 127 -71c67 0 123 45 140 110h58c-39 -109 -105 -161 -203 -161c-77 0 -131 33 -172 105
c-48 -75 -100 -105 -181 -105c-99 0 -161 54 -161 140c0 57 31 105 80 124c33 13 56 17 144 26c92 10 92 10 92 58c0 24 -2 40 -8 54c-15 35 -53 54 -107 54c-81 0 -121 -34 -126 -108zM357 191l-1 55c-22 -6 -45 -10 -80 -14c-77 -10 -99 -14 -125 -25
c-32 -15 -50 -43 -50 -80c0 -57 39 -90 106 -90c96 0 150 55 150 154zM413 277h293c-4 106 -56 166 -146 166c-61 0 -115 -33 -134 -83c-9 -23 -12 -42 -13 -83z" />
    <glyph glyph-name="dotlessi" unicode="&#x131;" horiz-adv-x="207" 
d="M73 0v480h61v-480h-61z" />
    <glyph glyph-name="lslash" unicode="&#x142;" horiz-adv-x="260" 
d="M100 303l-84 -62v60l84 62v304h60v-273l84 63v-60l-84 -63v-334h-60v303z" />
    <glyph glyph-name="oslash" unicode="&#xf8;" horiz-adv-x="534" 
d="M37 7l54 63c-31 42 -45 92 -45 157c0 162 87 266 221 266c55 0 97 -16 143 -54l53 60l34 -31l-57 -66c31 -37 48 -94 48 -165c0 -163 -79 -251 -227 -251c-56 0 -102 17 -139 50l-51 -59zM130 115l244 283c-31 29 -67 43 -107 43c-99 0 -160 -80 -160 -207
c0 -45 4 -67 20 -110zM400 359l-241 -281c31 -29 62 -41 107 -41c104 0 163 71 163 196c0 52 -10 96 -29 126z" />
    <glyph glyph-name="oe" unicode="&#x153;" horiz-adv-x="861" 
d="M757 150h56c-9 -35 -18 -56 -37 -81c-43 -58 -89 -82 -162 -82c-80 0 -133 33 -179 111c-37 -74 -95 -111 -177 -111c-131 0 -212 97 -212 253c0 153 85 253 213 253c54 0 105 -18 137 -48c15 -14 26 -28 43 -60c47 75 102 109 178 109c83 0 146 -44 177 -123
c13 -34 19 -72 21 -142h-349v-14c0 -105 62 -178 151 -178c66 0 120 43 140 113zM260 443c-45 0 -85 -18 -113 -51s-42 -81 -42 -145c0 -138 53 -211 154 -211c95 0 152 74 152 199c0 134 -54 208 -151 208zM467 279h289c-1 102 -55 166 -139 166c-83 0 -139 -62 -150 -166z
" />
    <glyph glyph-name="germandbls" unicode="&#xdf;" horiz-adv-x="511" 
d="M73 0v464c0 76 3 100 17 129c25 54 88 87 164 87c105 0 174 -65 174 -162c0 -64 -26 -106 -84 -138c34 -14 50 -23 68 -40c34 -31 53 -82 53 -143c0 -128 -79 -211 -201 -211c-25 0 -42 3 -73 11v53c31 -10 47 -13 67 -13c87 0 146 64 146 159c0 98 -58 154 -158 154
c-15 0 -24 -1 -42 -3v51c13 -2 19 -3 30 -3c85 0 132 44 132 125c0 70 -41 108 -115 108c-59 0 -97 -25 -111 -71c-5 -19 -7 -45 -7 -89v-468h-60z" />
    <glyph glyph-name="onesuperior" unicode="&#xb9;" horiz-adv-x="355" 
d="M184 267v291h-97v36h9c67 0 94 20 97 73h42v-400h-51z" />
    <glyph glyph-name="logicalnot" unicode="&#xac;" horiz-adv-x="500" 
d="M403 0v218h-370v57h433v-275h-63z" />
    <glyph glyph-name="mu" unicode="&#xb5;" 
d="M83 -172v652h60v-275c0 -56 6 -82 26 -109c23 -33 63 -54 102 -54s76 21 99 57c19 30 26 59 26 113v268h60v-480h-60v60c-35 -52 -71 -73 -125 -73c-56 0 -94 22 -128 73v-232h-60z" />
    <glyph glyph-name="mu" unicode="&#x3bc;" 
d="M83 -172v652h60v-275c0 -56 6 -82 26 -109c23 -33 63 -54 102 -54s76 21 99 57c19 30 26 59 26 113v268h60v-480h-60v60c-35 -52 -71 -73 -125 -73c-56 0 -94 22 -128 73v-232h-60z" />
    <glyph glyph-name="trademark" unicode="&#x2122;" horiz-adv-x="775" 
d="M135 287v341h-128v39h301v-39h-127v-341h-46zM358 287v380h54l134 -324l133 324h53v-380h-42v300l-122 -300h-42l-127 301v-301h-41z" />
    <glyph glyph-name="Eth" unicode="&#xd0;" horiz-adv-x="662" 
d="M80 325h-73v54h73v288h222c105 0 144 -8 187 -36c79 -53 121 -153 121 -291c0 -149 -47 -256 -135 -307c-42 -25 -84 -33 -170 -33h-225v325zM148 325v-268h152c83 0 119 9 155 39c56 46 88 136 88 246c0 120 -39 210 -107 246c-32 17 -62 22 -138 22h-150v-231h209v-54
h-209z" />
    <glyph glyph-name="onehalf" unicode="&#xbd;" horiz-adv-x="840" 
d="M184 267v291h-97v36h9c67 0 94 20 97 73h42v-400h-51zM179 0l425 667h58l-425 -667h-58zM801 46v-46h-276c-1 86 29 127 130 180c74 41 92 62 92 107c0 46 -27 70 -78 70c-35 0 -60 -13 -72 -38c-6 -13 -9 -25 -11 -58h-53c3 93 51 143 138 143c78 0 131 -46 131 -115
c0 -36 -13 -67 -39 -92c-18 -19 -33 -29 -81 -55c-72 -39 -92 -58 -101 -96h220z" />
    <glyph glyph-name="plusminus" unicode="&#xb1;" 
d="M97 403h145v139h56v-139h145v-53h-145v-136h-56v136h-145v53zM97 136h346v-53h-346v53z" />
    <glyph glyph-name="Thorn" unicode="&#xde;" horiz-adv-x="580" 
d="M80 0v667h66v-100h193c76 0 120 -13 154 -44c35 -32 54 -84 54 -143c0 -61 -22 -114 -60 -145s-85 -43 -170 -43h-171v-192h-66zM146 250h150c79 0 107 4 134 21c32 20 50 60 50 110c0 41 -11 75 -31 95c-24 24 -59 33 -128 33h-175v-259z" />
    <glyph glyph-name="onequarter" unicode="&#xbc;" horiz-adv-x="840" 
d="M184 267v291h-97v36h9c67 0 94 20 97 73h42v-400h-51zM179 0l425 667h58l-425 -667h-58zM702 0v97h-182v39l189 264h43v-259h57v-44h-57v-97h-50zM580 141h122v174z" />
    <glyph glyph-name="divide" unicode="&#xf7;" 
d="M271 522c20 0 37 -17 37 -37c0 -21 -17 -38 -38 -38c-20 0 -37 17 -37 37c0 21 17 38 38 38zM271 220c20 0 37 -17 37 -37c0 -21 -17 -38 -38 -38c-20 0 -37 17 -37 37c0 21 17 38 38 38zM97 360h346v-53h-346v53z" />
    <glyph glyph-name="brokenbar" unicode="&#xa6;" horiz-adv-x="500" 
d="M218 667h65v-331h-65v331zM218 153h65v-320h-65v320z" />
    <glyph glyph-name="degree" unicode="&#xb0;" horiz-adv-x="378" 
d="M189 674c79 0 143 -63 143 -140s-64 -140 -142 -140c-80 0 -143 63 -143 142c0 75 65 138 142 138zM189 627c-51 0 -94 -42 -94 -92c0 -52 42 -94 95 -94c51 0 94 42 94 93s-43 93 -95 93z" />
    <glyph glyph-name="thorn" unicode="&#xfe;" horiz-adv-x="547" 
d="M133 -172h-60v839h60v-256c44 59 89 82 159 82c122 0 208 -104 208 -249c0 -67 -21 -136 -55 -182c-34 -48 -94 -75 -163 -75c-67 0 -109 21 -149 74v-233zM287 443c-52 0 -97 -24 -126 -65c-22 -32 -31 -73 -31 -134c0 -64 10 -110 31 -144c25 -39 70 -63 121 -63
c96 0 158 79 158 202c0 128 -57 204 -153 204z" />
    <glyph glyph-name="threequarters" unicode="&#xbe;" horiz-adv-x="840" 
d="M36 395h53c2 -27 5 -40 14 -52c13 -21 42 -34 73 -34c52 0 89 32 89 76c0 46 -33 72 -89 72c-9 0 -17 0 -35 -2v44c13 -1 19 -2 28 -2c52 0 83 25 83 66c0 37 -29 61 -74 61c-33 0 -60 -13 -71 -34c-8 -14 -10 -26 -10 -53h-52c0 31 1 38 8 56c18 49 65 78 126 78
c74 0 126 -43 126 -105c0 -36 -13 -59 -47 -84c44 -23 61 -48 61 -93c0 -74 -60 -126 -143 -126c-82 0 -140 50 -140 120v12zM178 0l426 667h58l-426 -667h-58zM701 0v97h-182v39l189 264h43v-259h58v-44h-58v-97h-50zM579 141h122v174z" />
    <glyph glyph-name="twosuperior" unicode="&#xb2;" horiz-adv-x="355" 
d="M315 313v-46h-276c-1 84 29 127 130 180c74 41 92 61 92 106c0 47 -27 71 -78 71c-35 0 -60 -13 -72 -38c-6 -13 -9 -25 -11 -59h-53c3 93 51 144 138 144c78 0 131 -47 131 -116c0 -36 -13 -67 -39 -92c-18 -18 -34 -28 -81 -54c-72 -39 -92 -58 -101 -96h220z" />
    <glyph glyph-name="registered" unicode="&#xae;" horiz-adv-x="756" 
d="M241 147v380h163c52 0 80 -7 101 -25c22 -18 34 -47 34 -79c0 -42 -20 -74 -57 -90c36 -20 41 -32 45 -106c2 -34 4 -51 6 -56c3 -6 8 -13 21 -24h-58c-7 20 -8 25 -11 63c-7 95 -15 105 -91 105h-107v-168h-46zM287 352h102c39 0 58 3 73 10c19 10 31 33 31 61
c0 23 -9 43 -24 52c-15 11 -30 13 -78 13h-104v-136zM382 679c186 0 340 -157 340 -346c0 -190 -154 -345 -344 -345s-345 155 -345 345c0 193 154 346 349 346zM382 638c-170 0 -304 -135 -304 -305c0 -167 135 -304 300 -304s299 137 299 304s-134 305 -295 305z" />
    <glyph glyph-name="minus" unicode="&#x2212;" 
d="M97 360h346v-53h-346v53z" />
    <glyph glyph-name="eth" unicode="&#xf0;" horiz-adv-x="535" 
d="M345 697l24 -34l-73 -54c45 -50 69 -80 93 -115c76 -109 100 -173 100 -262c0 -150 -86 -245 -222 -245s-221 95 -221 247c0 156 88 259 222 259c22 0 37 -2 65 -10c-26 35 -37 49 -75 97l-73 -54l-23 35l70 52c-26 33 -36 46 -55 69l31 26c11 -13 31 -35 60 -68z
M268 442c-100 0 -162 -79 -162 -205s59 -199 162 -199c101 0 161 73 161 196c0 129 -62 208 -161 208z" />
    <glyph glyph-name="multiply" unicode="&#xd7;" 
d="M145 497l125 -124l124 124l39 -39l-124 -125l124 -124l-39 -39l-124 124l-125 -124l-39 39l124 124l-124 125z" />
    <glyph glyph-name="threesuperior" unicode="&#xb3;" horiz-adv-x="355" 
d="M36 395h53c2 -27 5 -40 14 -52c13 -21 42 -34 73 -34c52 0 89 32 89 76c0 46 -33 72 -89 72c-9 0 -17 0 -35 -2v44c13 -1 19 -2 28 -2c52 0 83 25 83 66c0 37 -29 61 -74 61c-33 0 -60 -13 -71 -34c-8 -14 -10 -26 -10 -53h-52c0 31 1 38 8 56c18 49 65 78 126 78
c74 0 126 -43 126 -105c0 -36 -13 -59 -47 -84c44 -23 61 -48 61 -93c0 -74 -60 -126 -143 -126c-82 0 -140 50 -140 120v12z" />
    <glyph glyph-name="copyright" unicode="&#xa9;" horiz-adv-x="756" 
d="M507 286h45c-15 -94 -75 -147 -169 -147c-111 0 -179 76 -179 200c0 119 71 195 184 195c85 0 137 -40 158 -120h-45c-18 55 -55 81 -115 81c-85 0 -136 -60 -136 -161c0 -95 52 -157 134 -157c66 0 114 43 123 109zM382 679c186 0 340 -157 340 -346
c0 -190 -154 -345 -344 -345s-345 155 -345 345c0 193 154 346 349 346zM382 638c-170 0 -304 -135 -304 -305c0 -167 135 -304 300 -304s299 137 299 304s-134 305 -295 305z" />
    <glyph glyph-name="Aacute" unicode="&#xc1;" horiz-adv-x="619" 
d="M13 0l262 667h70l261 -667h-70l-80 211h-294l-79 -211h-70zM182 263h256l-129 341zM275 730l68 123h80l-100 -123h-48z" />
    <glyph glyph-name="Acircumflex" unicode="&#xc2;" horiz-adv-x="619" 
d="M13 0l262 667h70l261 -667h-70l-80 211h-294l-79 -211h-70zM182 263h256l-129 341zM176 731l99 121h71l98 -121h-65l-67 85l-73 -85h-63z" />
    <glyph glyph-name="Adieresis" unicode="&#xc4;" horiz-adv-x="619" 
d="M13 0l262 667h70l261 -667h-70l-80 211h-294l-79 -211h-70zM182 263h256l-129 341zM170 749v85h68v-85h-68zM381 749v85h68v-85h-68z" />
    <glyph glyph-name="Agrave" unicode="&#xc0;" horiz-adv-x="619" 
d="M13 0l262 667h70l261 -667h-70l-80 211h-294l-79 -211h-70zM182 263h256l-129 341zM343 730h-48l-100 123h80z" />
    <glyph glyph-name="Aring" unicode="&#xc5;" horiz-adv-x="619" 
d="M13 0l262 667h70l261 -667h-70l-80 211h-294l-79 -211h-70zM182 263h256l-129 341zM311 885c45 0 82 -38 82 -83c0 -46 -38 -84 -84 -84c-45 0 -83 38 -83 83c0 47 37 84 85 84zM310 848c-26 0 -47 -21 -47 -47c0 -25 21 -46 46 -46c26 0 47 21 47 46c0 26 -21 47 -46 47
z" />
    <glyph glyph-name="Atilde" unicode="&#xc3;" horiz-adv-x="619" 
d="M13 0l262 667h70l261 -667h-70l-80 211h-294l-79 -211h-70zM182 263h256l-129 341zM426 839h36c-11 -60 -39 -91 -82 -91c-23 0 -35 4 -97 34c-11 6 -25 9 -34 9c-24 0 -38 -14 -47 -47h-35c10 59 40 91 86 91c17 0 38 -6 62 -18c46 -23 50 -24 66 -24c22 0 37 15 45 46z
" />
    <glyph glyph-name="Ccedilla" unicode="&#xc7;" horiz-adv-x="667" 
d="M358 -13l-26 -44c14 3 21 4 29 4c41 0 71 -27 71 -63c0 -46 -39 -78 -95 -78c-28 0 -51 5 -88 19l13 29c23 -10 48 -16 69 -16c30 0 53 19 53 43c0 21 -20 36 -46 36c-12 0 -21 -2 -40 -8l-15 15l41 63c-78 10 -122 28 -166 66c-68 59 -106 161 -106 285
c0 88 19 158 61 220c56 82 136 122 246 122c139 0 227 -69 260 -203h-65c-31 98 -96 146 -198 146c-148 0 -237 -111 -237 -293c0 -175 91 -287 233 -287c113 0 198 78 213 194h64c-17 -149 -126 -250 -271 -250z" />
    <glyph glyph-name="Eacute" unicode="&#xc9;" horiz-adv-x="578" 
d="M80 0v667h448v-57h-381v-241h350v-54h-350v-259h390v-56h-457zM258 730l68 123h80l-100 -123h-48z" />
    <glyph glyph-name="Ecircumflex" unicode="&#xca;" horiz-adv-x="578" 
d="M80 0v667h448v-57h-381v-241h350v-54h-350v-259h390v-56h-457zM169 731l99 121h71l98 -121h-65l-67 85l-73 -85h-63z" />
    <glyph glyph-name="Edieresis" unicode="&#xcb;" horiz-adv-x="578" 
d="M80 0v667h448v-57h-381v-241h350v-54h-350v-259h390v-56h-457zM163 749v85h68v-85h-68zM374 749v85h68v-85h-68z" />
    <glyph glyph-name="Egrave" unicode="&#xc8;" horiz-adv-x="578" 
d="M80 0v667h448v-57h-381v-241h350v-54h-350v-259h390v-56h-457zM349 730h-48l-100 123h80z" />
    <glyph glyph-name="Iacute" unicode="&#xcd;" horiz-adv-x="228" 
d="M80 0v667h68v-667h-68zM80 730l68 123h80l-100 -123h-48z" />
    <glyph glyph-name="Icircumflex" unicode="&#xce;" horiz-adv-x="228" 
d="M80 0v667h68v-667h-68zM-3 731l83 121h70l81 -121h-61l-54 85l-59 -85h-60z" />
    <glyph glyph-name="Idieresis" unicode="&#xcf;" horiz-adv-x="228" 
d="M80 0v667h68v-667h-68zM26 749v85h61v-85h-61zM141 749v85h61v-85h-61z" />
    <glyph glyph-name="Igrave" unicode="&#xcc;" horiz-adv-x="228" 
d="M80 0v667h68v-667h-68zM148 730h-48l-100 123h80z" />
    <glyph glyph-name="Ntilde" unicode="&#xd1;" horiz-adv-x="664" 
d="M80 0v667h66l379 -570v570h59v-667h-66l-379 571v-571h-59zM450 839h36c-11 -60 -39 -91 -82 -91c-23 0 -35 4 -97 34c-11 6 -25 9 -34 9c-24 0 -38 -14 -47 -47h-35c10 59 40 91 86 91c17 0 38 -6 62 -18c46 -23 50 -24 66 -24c22 0 37 15 45 46z" />
    <glyph glyph-name="Oacute" unicode="&#xd3;" horiz-adv-x="720" 
d="M360 680c109 0 184 -36 239 -114c46 -64 69 -145 69 -239c0 -207 -120 -340 -307 -340c-191 0 -309 132 -309 345c0 88 25 172 69 234c56 78 132 114 239 114zM360 623c-149 0 -241 -110 -241 -288c0 -182 91 -291 242 -291c148 0 240 110 240 287
c0 182 -91 292 -241 292zM313 730l68 123h80l-100 -123h-48z" />
    <glyph glyph-name="Ocircumflex" unicode="&#xd4;" horiz-adv-x="720" 
d="M360 680c109 0 184 -36 239 -114c46 -64 69 -145 69 -239c0 -207 -120 -340 -307 -340c-191 0 -309 132 -309 345c0 88 25 172 69 234c56 78 132 114 239 114zM360 623c-149 0 -241 -110 -241 -288c0 -182 91 -291 242 -291c148 0 240 110 240 287
c0 182 -91 292 -241 292zM226 731l99 121h71l98 -121h-65l-67 85l-73 -85h-63z" />
    <glyph glyph-name="Odieresis" unicode="&#xd6;" horiz-adv-x="720" 
d="M360 680c109 0 184 -36 239 -114c46 -64 69 -145 69 -239c0 -207 -120 -340 -307 -340c-191 0 -309 132 -309 345c0 88 25 172 69 234c56 78 132 114 239 114zM360 623c-149 0 -241 -110 -241 -288c0 -182 91 -291 242 -291c148 0 240 110 240 287
c0 182 -91 292 -241 292zM221 749v85h68v-85h-68zM432 749v85h68v-85h-68z" />
    <glyph glyph-name="Ograve" unicode="&#xd2;" horiz-adv-x="720" 
d="M360 680c109 0 184 -36 239 -114c46 -64 69 -145 69 -239c0 -207 -120 -340 -307 -340c-191 0 -309 132 -309 345c0 88 25 172 69 234c56 78 132 114 239 114zM360 623c-149 0 -241 -110 -241 -288c0 -182 91 -291 242 -291c148 0 240 110 240 287
c0 182 -91 292 -241 292zM407 730h-48l-100 123h80z" />
    <glyph glyph-name="Otilde" unicode="&#xd5;" horiz-adv-x="720" 
d="M360 680c109 0 184 -36 239 -114c46 -64 69 -145 69 -239c0 -207 -120 -340 -307 -340c-191 0 -309 132 -309 345c0 88 25 172 69 234c56 78 132 114 239 114zM360 623c-149 0 -241 -110 -241 -288c0 -182 91 -291 242 -291c148 0 240 110 240 287
c0 182 -91 292 -241 292zM478 839h36c-11 -60 -39 -91 -82 -91c-23 0 -35 4 -97 34c-11 6 -25 9 -34 9c-24 0 -38 -14 -47 -47h-35c10 59 40 91 86 91c17 0 38 -6 62 -18c46 -23 50 -24 66 -24c22 0 37 15 45 46z" />
    <glyph glyph-name="Scaron" unicode="&#x160;" horiz-adv-x="582" 
d="M40 221h65c8 -120 70 -177 191 -177c109 0 175 52 175 138c0 40 -15 69 -46 87c-31 19 -69 30 -164 49c-85 18 -128 34 -156 59c-30 27 -48 71 -48 119c0 113 88 184 230 184c147 0 224 -64 237 -197h-67c-1 44 -8 65 -29 88c-31 35 -76 52 -141 52
c-101 0 -164 -48 -164 -126c0 -68 39 -98 162 -121c103 -19 143 -31 181 -54c44 -27 70 -76 70 -132c0 -121 -98 -203 -241 -203c-97 0 -173 33 -215 93c-28 40 -39 78 -40 141zM157 852h63l73 -85l67 85h65l-98 -121h-71z" />
    <glyph glyph-name="Uacute" unicode="&#xda;" horiz-adv-x="639" 
d="M73 667h67v-427c0 -69 4 -93 22 -123c28 -46 85 -73 157 -73c83 0 142 33 166 93c10 28 13 50 13 110v420h67v-425c0 -71 -11 -119 -35 -157c-41 -63 -117 -98 -213 -98c-107 0 -190 43 -223 116c-15 32 -21 70 -21 134v430zM272 730l68 123h80l-100 -123h-48z" />
    <glyph glyph-name="Ucircumflex" unicode="&#xdb;" horiz-adv-x="639" 
d="M73 667h67v-427c0 -69 4 -93 22 -123c28 -46 85 -73 157 -73c83 0 142 33 166 93c10 28 13 50 13 110v420h67v-425c0 -71 -11 -119 -35 -157c-41 -63 -117 -98 -213 -98c-107 0 -190 43 -223 116c-15 32 -21 70 -21 134v430zM185 731l99 121h71l98 -121h-65l-67 85
l-73 -85h-63z" />
    <glyph glyph-name="Udieresis" unicode="&#xdc;" horiz-adv-x="639" 
d="M73 667h67v-427c0 -69 4 -93 22 -123c28 -46 85 -73 157 -73c83 0 142 33 166 93c10 28 13 50 13 110v420h67v-425c0 -71 -11 -119 -35 -157c-41 -63 -117 -98 -213 -98c-107 0 -190 43 -223 116c-15 32 -21 70 -21 134v430zM180 749v85h68v-85h-68zM391 749v85h68v-85
h-68z" />
    <glyph glyph-name="Ugrave" unicode="&#xd9;" horiz-adv-x="639" 
d="M73 667h67v-427c0 -69 4 -93 22 -123c28 -46 85 -73 157 -73c83 0 142 33 166 93c10 28 13 50 13 110v420h67v-425c0 -71 -11 -119 -35 -157c-41 -63 -117 -98 -213 -98c-107 0 -190 43 -223 116c-15 32 -21 70 -21 134v430zM366 730h-48l-100 123h80z" />
    <glyph glyph-name="Yacute" unicode="&#xdd;" horiz-adv-x="578" 
d="M257 0v293l-250 374h82l202 -311l204 311h76l-247 -374v-293h-67zM242 730l68 123h80l-100 -123h-48z" />
    <glyph glyph-name="Ydieresis" unicode="&#x178;" horiz-adv-x="578" 
d="M257 0v293l-250 374h82l202 -311l204 311h76l-247 -374v-293h-67zM150 749v85h68v-85h-68zM361 749v85h68v-85h-68z" />
    <glyph glyph-name="Zcaron" unicode="&#x17d;" horiz-adv-x="568" 
d="M541 0h-513v40l430 570h-394v57h469v-56l-417 -554h425v-57zM164 852h63l73 -85l67 85h65l-98 -121h-71z" />
    <glyph glyph-name="aacute" unicode="&#xe1;" horiz-adv-x="507" 
d="M486 41v-41c-21 -7 -31 -9 -45 -9c-47 0 -65 19 -70 75c-54 -59 -99 -79 -174 -79c-97 0 -154 51 -154 137c0 40 12 74 36 98c27 28 54 39 121 49l119 18c51 7 54 10 54 59c0 66 -37 94 -122 94c-82 0 -117 -30 -123 -105h-65c7 101 72 156 187 156c76 0 135 -23 162 -63
c16 -24 19 -43 19 -106v-240c0 -36 7 -47 29 -47c7 0 13 1 26 4zM371 248l-164 -25c-74 -12 -104 -39 -104 -96c0 -56 39 -89 103 -89c58 0 109 23 140 64c19 24 25 52 25 108v38zM207 567l68 123h80l-100 -123h-48z" />
    <glyph glyph-name="acircumflex" unicode="&#xe2;" horiz-adv-x="507" 
d="M486 41v-41c-21 -7 -31 -9 -45 -9c-47 0 -65 19 -70 75c-54 -59 -99 -79 -174 -79c-97 0 -154 51 -154 137c0 40 12 74 36 98c27 28 54 39 121 49l119 18c51 7 54 10 54 59c0 66 -37 94 -122 94c-82 0 -117 -30 -123 -105h-65c7 101 72 156 187 156c76 0 135 -23 162 -63
c16 -24 19 -43 19 -106v-240c0 -36 7 -47 29 -47c7 0 13 1 26 4zM371 248l-164 -25c-74 -12 -104 -39 -104 -96c0 -56 39 -89 103 -89c58 0 109 23 140 64c19 24 25 52 25 108v38zM121 567l99 122h71l98 -122h-65l-67 86l-73 -86h-63z" />
    <glyph glyph-name="adieresis" unicode="&#xe4;" horiz-adv-x="507" 
d="M486 41v-41c-21 -7 -31 -9 -45 -9c-47 0 -65 19 -70 75c-54 -59 -99 -79 -174 -79c-97 0 -154 51 -154 137c0 40 12 74 36 98c27 28 54 39 121 49l119 18c51 7 54 10 54 59c0 66 -37 94 -122 94c-82 0 -117 -30 -123 -105h-65c7 101 72 156 187 156c76 0 135 -23 162 -63
c16 -24 19 -43 19 -106v-240c0 -36 7 -47 29 -47c7 0 13 1 26 4zM371 248l-164 -25c-74 -12 -104 -39 -104 -96c0 -56 39 -89 103 -89c58 0 109 23 140 64c19 24 25 52 25 108v38zM135 584v85h68v-85h-68zM306 584v85h68v-85h-68z" />
    <glyph glyph-name="agrave" unicode="&#xe0;" horiz-adv-x="507" 
d="M486 41v-41c-21 -7 -31 -9 -45 -9c-47 0 -65 19 -70 75c-54 -59 -99 -79 -174 -79c-97 0 -154 51 -154 137c0 40 12 74 36 98c27 28 54 39 121 49l119 18c51 7 54 10 54 59c0 66 -37 94 -122 94c-82 0 -117 -30 -123 -105h-65c7 101 72 156 187 156c76 0 135 -23 162 -63
c16 -24 19 -43 19 -106v-240c0 -36 7 -47 29 -47c7 0 13 1 26 4zM371 248l-164 -25c-74 -12 -104 -39 -104 -96c0 -56 39 -89 103 -89c58 0 109 23 140 64c19 24 25 52 25 108v38zM298 567h-48l-100 123h80z" />
    <glyph glyph-name="aring" unicode="&#xe5;" horiz-adv-x="507" 
d="M486 41v-41c-21 -7 -31 -9 -45 -9c-47 0 -65 19 -70 75c-54 -59 -99 -79 -174 -79c-97 0 -154 51 -154 137c0 40 12 74 36 98c27 28 54 39 121 49l119 18c51 7 54 10 54 59c0 66 -37 94 -122 94c-82 0 -117 -30 -123 -105h-65c7 101 72 156 187 156c76 0 135 -23 162 -63
c16 -24 19 -43 19 -106v-240c0 -36 7 -47 29 -47c7 0 13 1 26 4zM371 248l-164 -25c-74 -12 -104 -39 -104 -96c0 -56 39 -89 103 -89c58 0 109 23 140 64c19 24 25 52 25 108v38zM255 712c45 0 82 -38 82 -83c0 -46 -38 -84 -84 -84c-45 0 -83 38 -83 83c0 47 37 84 85 84z
M254 676c-26 0 -47 -21 -47 -47s21 -47 46 -47c26 0 47 21 47 47s-21 47 -46 47z" />
    <glyph glyph-name="atilde" unicode="&#xe3;" horiz-adv-x="507" 
d="M486 41v-41c-21 -7 -31 -9 -45 -9c-47 0 -65 19 -70 75c-54 -59 -99 -79 -174 -79c-97 0 -154 51 -154 137c0 40 12 74 36 98c27 28 54 39 121 49l119 18c51 7 54 10 54 59c0 66 -37 94 -122 94c-82 0 -117 -30 -123 -105h-65c7 101 72 156 187 156c76 0 135 -23 162 -63
c16 -24 19 -43 19 -106v-240c0 -36 7 -47 29 -47c7 0 13 1 26 4zM371 248l-164 -25c-74 -12 -104 -39 -104 -96c0 -56 39 -89 103 -89c58 0 109 23 140 64c19 24 25 52 25 108v38zM367 676h36c-12 -60 -39 -90 -82 -90c-23 0 -35 4 -97 34c-11 6 -25 9 -34 9
c-24 0 -38 -14 -47 -47h-35c10 59 40 91 86 91c17 0 37 -6 62 -18c45 -22 50 -24 66 -24c22 0 37 15 45 45z" />
    <glyph glyph-name="ccedilla" unicode="&#xe7;" horiz-adv-x="494" 
d="M269 -13l-28 -44c14 3 21 4 29 4c41 0 71 -27 71 -63c0 -46 -39 -78 -95 -78c-28 0 -52 5 -88 19l13 28c23 -9 48 -15 69 -15c30 0 53 19 53 43c0 21 -20 36 -46 36c-12 0 -21 -2 -40 -8l-15 14l43 65c-61 8 -97 26 -130 64c-38 44 -59 110 -59 182c0 156 89 259 224 259
c105 0 175 -61 190 -164h-60c-8 72 -54 111 -129 111c-102 0 -164 -76 -164 -203c0 -121 62 -198 159 -198c75 0 125 47 134 126h59c-23 -110 -88 -172 -190 -178z" />
    <glyph glyph-name="eacute" unicode="&#xe9;" horiz-adv-x="511" 
d="M404 150h61c-16 -41 -26 -61 -43 -85c-36 -49 -96 -78 -165 -78c-131 0 -211 93 -211 245c0 158 84 261 215 261c99 0 168 -55 192 -151c6 -25 8 -43 12 -111h-362c1 -125 57 -194 156 -194c76 0 127 39 145 113zM106 282h298c-5 103 -55 161 -141 161
c-51 0 -97 -23 -124 -64c-18 -28 -26 -50 -33 -97zM218 567l68 123h80l-100 -123h-48z" />
    <glyph glyph-name="ecircumflex" unicode="&#xea;" horiz-adv-x="511" 
d="M404 150h61c-16 -41 -26 -61 -43 -85c-36 -49 -96 -78 -165 -78c-131 0 -211 93 -211 245c0 158 84 261 215 261c99 0 168 -55 192 -151c6 -25 8 -43 12 -111h-362c1 -125 57 -194 156 -194c76 0 127 39 145 113zM106 282h298c-5 103 -55 161 -141 161
c-51 0 -97 -23 -124 -64c-18 -28 -26 -50 -33 -97zM131 567l99 122h71l98 -122h-65l-67 86l-73 -86h-63z" />
    <glyph glyph-name="edieresis" unicode="&#xeb;" horiz-adv-x="511" 
d="M404 150h61c-16 -41 -26 -61 -43 -85c-36 -49 -96 -78 -165 -78c-131 0 -211 93 -211 245c0 158 84 261 215 261c99 0 168 -55 192 -151c6 -25 8 -43 12 -111h-362c1 -125 57 -194 156 -194c76 0 127 39 145 113zM106 282h298c-5 103 -55 161 -141 161
c-51 0 -97 -23 -124 -64c-18 -28 -26 -50 -33 -97zM146 584v85h68v-85h-68zM317 584v85h68v-85h-68z" />
    <glyph glyph-name="egrave" unicode="&#xe8;" horiz-adv-x="511" 
d="M404 150h61c-16 -41 -26 -61 -43 -85c-36 -49 -96 -78 -165 -78c-131 0 -211 93 -211 245c0 158 84 261 215 261c99 0 168 -55 192 -151c6 -25 8 -43 12 -111h-362c1 -125 57 -194 156 -194c76 0 127 39 145 113zM106 282h298c-5 103 -55 161 -141 161
c-51 0 -97 -23 -124 -64c-18 -28 -26 -50 -33 -97zM309 567h-48l-100 123h80z" />
    <glyph glyph-name="iacute" unicode="&#xed;" horiz-adv-x="207" 
d="M74 0v480h61v-480h-61zM70 567l65 123h77l-94 -123h-48z" />
    <glyph glyph-name="icircumflex" unicode="&#xee;" horiz-adv-x="207" 
d="M74 0v480h61v-480h-61zM-10 567l79 122h71l78 -122h-61l-51 86l-56 -86h-60z" />
    <glyph glyph-name="idieresis" unicode="&#xef;" horiz-adv-x="207" 
d="M73 0v480h61v-480h-61zM12 584v85h68v-85h-68zM127 584v85h68v-85h-68z" />
    <glyph glyph-name="igrave" unicode="&#xec;" horiz-adv-x="207" 
d="M73 0v480h61v-480h-61zM138 567h-48l-94 123h77z" />
    <glyph glyph-name="ntilde" unicode="&#xf1;" horiz-adv-x="526" 
d="M73 0v480h60v-58c47 53 86 71 154 71c80 0 134 -32 155 -92c7 -22 10 -45 10 -91v-310h-60v307c0 48 -3 65 -12 84c-17 33 -54 52 -102 52c-62 0 -111 -31 -133 -84c-9 -24 -12 -44 -12 -93v-266h-60zM368 676h36c-12 -60 -39 -90 -82 -90c-23 0 -35 4 -97 34
c-11 6 -25 9 -34 9c-24 0 -38 -14 -47 -47h-35c10 59 40 91 86 91c17 0 37 -6 62 -18c45 -22 50 -24 66 -24c22 0 37 15 45 45z" />
    <glyph glyph-name="oacute" unicode="&#xf3;" horiz-adv-x="535" 
d="M268 493c133 0 221 -103 221 -259c0 -152 -85 -247 -221 -247c-138 0 -222 94 -222 250c0 153 89 256 222 256zM268 442c-100 0 -162 -79 -162 -205s59 -199 162 -199c101 0 161 73 161 196c0 129 -62 208 -161 208zM223 567l68 123h80l-100 -123h-48z" />
    <glyph glyph-name="ocircumflex" unicode="&#xf4;" horiz-adv-x="535" 
d="M268 493c133 0 221 -103 221 -259c0 -152 -85 -247 -221 -247c-138 0 -222 94 -222 250c0 153 89 256 222 256zM268 442c-100 0 -162 -79 -162 -205s59 -199 162 -199c101 0 161 73 161 196c0 129 -62 208 -161 208zM134 567l99 122h71l98 -122h-65l-67 86l-73 -86h-63z
" />
    <glyph glyph-name="odieresis" unicode="&#xf6;" horiz-adv-x="535" 
d="M268 493c133 0 221 -103 221 -259c0 -152 -85 -247 -221 -247c-138 0 -222 94 -222 250c0 153 89 256 222 256zM268 442c-100 0 -162 -79 -162 -205s59 -199 162 -199c101 0 161 73 161 196c0 129 -62 208 -161 208zM148 584v85h68v-85h-68zM319 584v85h68v-85h-68z" />
    <glyph glyph-name="ograve" unicode="&#xf2;" horiz-adv-x="535" 
d="M268 493c133 0 221 -103 221 -259c0 -152 -85 -247 -221 -247c-138 0 -222 94 -222 250c0 153 89 256 222 256zM268 442c-100 0 -162 -79 -162 -205s59 -199 162 -199c101 0 161 73 161 196c0 129 -62 208 -161 208zM315 567h-48l-100 123h80z" />
    <glyph glyph-name="otilde" unicode="&#xf5;" horiz-adv-x="535" 
d="M268 493c133 0 221 -103 221 -259c0 -152 -85 -247 -221 -247c-138 0 -222 94 -222 250c0 153 89 256 222 256zM268 442c-100 0 -162 -79 -162 -205s59 -199 162 -199c101 0 161 73 161 196c0 129 -62 208 -161 208zM386 676h36c-12 -60 -39 -90 -82 -90
c-23 0 -35 4 -97 34c-11 6 -25 9 -34 9c-24 0 -38 -14 -47 -47h-35c10 59 40 91 86 91c17 0 37 -6 62 -18c45 -22 50 -24 66 -24c22 0 37 15 45 45z" />
    <glyph glyph-name="scaron" unicode="&#x161;" horiz-adv-x="455" 
d="M40 151h60c6 -75 52 -112 138 -112c74 0 119 36 119 94c0 31 -14 48 -51 63c-22 9 -32 11 -126 32c-88 19 -127 58 -127 126c0 86 67 139 175 139c110 0 169 -49 180 -150h-59c-13 70 -46 95 -125 95c-69 0 -111 -29 -111 -78c0 -27 14 -49 38 -61c20 -9 26 -11 101 -28
c68 -16 89 -23 114 -38c33 -19 51 -52 51 -96c0 -92 -72 -150 -186 -150c-121 0 -191 60 -191 164zM101 689h63l73 -86l67 86h65l-98 -122h-71z" />
    <glyph glyph-name="uacute" unicode="&#xfa;" horiz-adv-x="526" 
d="M452 480v-480h-60v58c-47 -53 -86 -71 -154 -71c-80 0 -134 32 -155 92c-8 24 -10 42 -10 104v297h60v-300c0 -57 2 -70 12 -91c17 -33 54 -52 102 -52c49 0 90 19 116 54c20 28 29 60 29 109v280h60zM212 567l68 123h80l-100 -123h-48z" />
    <glyph glyph-name="ucircumflex" unicode="&#xfb;" horiz-adv-x="526" 
d="M452 480v-480h-60v58c-47 -53 -86 -71 -154 -71c-80 0 -134 32 -155 92c-8 24 -10 42 -10 104v297h60v-300c0 -57 2 -70 12 -91c17 -33 54 -52 102 -52c49 0 90 19 116 54c20 28 29 60 29 109v280h60zM129 567l99 122h71l98 -122h-65l-67 86l-73 -86h-63z" />
    <glyph glyph-name="udieresis" unicode="&#xfc;" horiz-adv-x="526" 
d="M452 480v-480h-60v58c-47 -53 -86 -71 -154 -71c-80 0 -134 32 -155 92c-8 24 -10 42 -10 104v297h60v-300c0 -57 2 -70 12 -91c17 -33 54 -52 102 -52c49 0 90 19 116 54c20 28 29 60 29 109v280h60zM143 584v85h68v-85h-68zM314 584v85h68v-85h-68z" />
    <glyph glyph-name="ugrave" unicode="&#xf9;" horiz-adv-x="526" 
d="M452 480v-480h-60v58c-47 -53 -86 -71 -154 -71c-80 0 -134 32 -155 92c-8 24 -10 42 -10 104v297h60v-300c0 -57 2 -70 12 -91c17 -33 54 -52 102 -52c49 0 90 19 116 54c20 28 29 60 29 109v280h60zM310 567h-48l-100 123h80z" />
    <glyph glyph-name="yacute" unicode="&#xfd;" horiz-adv-x="440" 
d="M60 -168v53c19 -5 29 -7 40 -7c32 0 55 22 72 66l23 62l-188 474h65l151 -399l149 399h62l-218 -561c-27 -69 -55 -91 -116 -91c-13 0 -22 1 -40 4zM173 567l68 123h80l-100 -123h-48z" />
    <glyph glyph-name="ydieresis" unicode="&#xff;" horiz-adv-x="440" 
d="M60 -168v53c19 -5 29 -7 40 -7c32 0 55 22 72 66l23 62l-188 474h65l151 -399l149 399h62l-218 -561c-27 -69 -55 -91 -116 -91c-13 0 -22 1 -40 4zM101 584v85h68v-85h-68zM272 584v85h68v-85h-68z" />
    <glyph glyph-name="zcaron" unicode="&#x17e;" horiz-adv-x="428" 
d="M411 0h-382v44l294 382h-272v54h348v-41l-292 -385h304v-54zM93 689h63l73 -86l67 86h65l-98 -122h-71z" />
    <glyph glyph-name="Abreve" unicode="&#x102;" horiz-adv-x="619" 
d="M13 0l262 667h70l261 -667h-70l-80 211h-294l-79 -211h-70zM182 263h256l-129 341zM404 851h40c-12 -78 -60 -120 -137 -120c-76 0 -128 46 -133 120h40c11 -49 42 -74 95 -74c54 0 83 22 95 74z" />
    <glyph glyph-name="Aogonek" unicode="&#x104;" horiz-adv-x="619" 
d="M456 211h-294l-79 -211h-70l263 667h69l261 -667c-34 -20 -39 -23 -49 -34c-19 -18 -27 -35 -27 -53c0 -29 24 -50 58 -50c13 0 24 2 38 8v-40c-15 -6 -30 -9 -48 -9c-54 0 -95 35 -95 81c0 40 33 78 83 97h-30zM183 263h255l-129 341z" />
    <glyph glyph-name="Cacute" unicode="&#x106;" horiz-adv-x="667" 
d="M565 237h64c-23 -158 -125 -250 -279 -250c-185 0 -298 133 -298 352c0 87 19 157 61 219c56 82 135 122 246 122c139 0 227 -69 260 -203h-65c-31 98 -96 146 -198 146c-148 0 -237 -110 -237 -293c0 -174 91 -286 233 -286c113 0 198 77 213 193zM306 730l68 123h80
l-100 -123h-48z" />
    <glyph glyph-name="Ccaron" unicode="&#x10c;" horiz-adv-x="667" 
d="M565 237h64c-23 -158 -125 -250 -279 -250c-185 0 -298 133 -298 352c0 87 19 157 61 219c56 82 135 122 246 122c139 0 227 -69 260 -203h-65c-31 98 -96 146 -198 146c-148 0 -237 -110 -237 -293c0 -174 91 -286 233 -286c113 0 198 77 213 193zM220 852h63l73 -85
l67 85h65l-98 -121h-71z" />
    <glyph glyph-name="Dcaron" unicode="&#x10e;" horiz-adv-x="662" 
d="M80 0v667h209c120 0 155 -6 200 -36c79 -53 121 -153 121 -291c0 -148 -47 -256 -135 -307c-42 -25 -84 -33 -170 -33h-225zM148 57h152c84 0 118 9 155 39c56 45 88 136 88 247c0 120 -39 209 -107 245c-33 18 -60 22 -144 22h-144v-553zM170 852h63l73 -85l67 85h65
l-98 -121h-71z" />
    <glyph glyph-name="Ecaron" unicode="&#x11a;" horiz-adv-x="578" 
d="M80 0v667h448v-57h-381v-241h350v-54h-350v-259h390v-56h-457zM169 852h63l73 -85l67 85h65l-98 -121h-71z" />
    <glyph glyph-name="Edotaccent" unicode="&#x116;" horiz-adv-x="578" 
d="M80 0v667h448v-57h-381v-241h350v-54h-350v-259h390v-56h-457zM268 749v85h68v-85h-68z" />
    <glyph glyph-name="Eogonek" unicode="&#x118;" horiz-adv-x="578" 
d="M80 0v667h448v-57h-381v-241h350v-54h-350v-259h390v-56c-36 -21 -39 -23 -49 -34c-19 -18 -27 -35 -27 -53c0 -30 24 -50 59 -50c12 0 23 2 37 8v-40c-15 -6 -30 -9 -48 -9c-54 0 -95 35 -95 81c0 39 31 75 83 97h-417z" />
    <glyph glyph-name="Gbreve" unicode="&#x11e;" horiz-adv-x="703" 
d="M355 343h281v-343h-51v111c-68 -90 -134 -124 -235 -124c-179 0 -298 138 -298 344c0 211 120 349 305 349c148 0 251 -80 273 -211h-64c-24 101 -95 154 -208 154c-149 0 -239 -108 -239 -288c0 -178 92 -292 237 -292c109 0 194 70 217 178c5 23 5 23 5 68h-223v54z
M452 851h40c-12 -78 -60 -120 -137 -120c-76 0 -128 46 -133 120h40c11 -49 42 -74 95 -74c54 0 83 22 95 74z" />
    <glyph glyph-name="Idotaccent" unicode="&#x130;" horiz-adv-x="228" 
d="M80 0v667h68v-667h-68zM80 749v85h68v-85h-68z" />
    <glyph glyph-name="Lacute" unicode="&#x139;" horiz-adv-x="511" 
d="M80 0v667h67v-611h347v-56h-414zM81 730l68 123h80l-100 -123h-48z" />
    <glyph glyph-name="Lcaron" unicode="&#x13d;" horiz-adv-x="511" 
d="M80 0v667h67v-611h347v-56h-414zM251 503l15 164h80l-47 -164h-48z" />
    <glyph glyph-name="Nacute" unicode="&#x143;" horiz-adv-x="664" 
d="M80 0v667h66l379 -570v570h59v-667h-66l-379 571v-571h-59zM285 730l68 123h80l-100 -123h-48z" />
    <glyph glyph-name="Ncaron" unicode="&#x147;" horiz-adv-x="664" 
d="M80 0v667h66l379 -570v570h59v-667h-66l-379 571v-571h-59zM198 852h63l73 -85l67 85h65l-98 -121h-71z" />
    <glyph glyph-name="Ohungarumlaut" unicode="&#x150;" horiz-adv-x="720" 
d="M360 680c109 0 184 -36 239 -114c46 -64 69 -145 69 -239c0 -207 -120 -340 -307 -340c-191 0 -309 132 -309 345c0 88 25 172 69 234c56 78 132 114 239 114zM360 623c-149 0 -241 -110 -241 -288c0 -182 91 -291 242 -291c148 0 240 110 240 287
c0 182 -91 292 -241 292zM283 730l68 123h61l-88 -123h-41zM388 730l68 123h61l-88 -123h-41z" />
    <glyph glyph-name="Racute" unicode="&#x154;" horiz-adv-x="635" 
d="M80 0v667h270c71 0 112 -7 143 -25c51 -28 80 -85 80 -155c0 -77 -33 -128 -103 -159c68 -38 75 -56 82 -192c7 -105 8 -107 38 -136h-80c-11 32 -13 41 -17 107c-7 109 -19 153 -49 175c-21 16 -41 19 -111 19h-187v-301h-66zM146 355h179c50 0 80 3 103 10
c49 15 78 60 78 123c0 62 -29 103 -83 116c-19 4 -44 6 -96 6h-181v-255zM260 730l68 123h80l-100 -123h-48z" />
    <glyph glyph-name="Rcaron" unicode="&#x158;" horiz-adv-x="635" 
d="M80 0v667h270c71 0 112 -7 143 -25c51 -28 80 -85 80 -155c0 -77 -33 -128 -103 -159c68 -38 75 -56 82 -192c7 -105 8 -107 38 -136h-80c-11 32 -13 41 -17 107c-7 109 -19 153 -49 175c-21 16 -41 19 -111 19h-187v-301h-66zM146 355h179c50 0 80 3 103 10
c49 15 78 60 78 123c0 62 -29 103 -83 116c-19 4 -44 6 -96 6h-181v-255zM170 852h63l73 -85l67 85h65l-98 -121h-71z" />
    <glyph glyph-name="Sacute" unicode="&#x15a;" horiz-adv-x="582" 
d="M40 221h65c8 -120 70 -177 191 -177c109 0 175 52 175 138c0 40 -15 69 -46 87c-31 19 -69 30 -164 49c-85 18 -128 34 -156 59c-30 27 -48 71 -48 119c0 113 88 184 230 184c147 0 224 -64 237 -197h-67c-1 44 -8 65 -29 88c-31 35 -76 52 -141 52
c-101 0 -164 -48 -164 -126c0 -68 39 -98 162 -121c103 -19 143 -31 181 -54c44 -27 70 -76 70 -132c0 -121 -98 -203 -241 -203c-97 0 -173 33 -215 93c-28 40 -39 78 -40 141zM247 730l68 123h80l-100 -123h-48z" />
    <glyph glyph-name="Scedilla" unicode="&#x15e;" horiz-adv-x="582" 
d="M40 221h65c8 -120 70 -177 191 -177c109 0 175 52 175 138c0 40 -15 68 -46 87s-69 30 -164 49c-85 18 -128 34 -156 59c-30 27 -48 71 -48 119c0 113 88 184 230 184c147 0 224 -64 237 -197h-67c-1 44 -8 65 -29 88c-31 35 -76 52 -141 52c-101 0 -164 -49 -164 -126
c0 -30 11 -57 31 -75c23 -19 60 -32 131 -46c103 -19 143 -31 181 -54c44 -28 70 -76 70 -132c0 -79 -46 -148 -120 -181c-35 -15 -71 -22 -123 -22l-27 -44c14 3 21 4 29 4c41 0 71 -27 71 -63c0 -46 -39 -78 -95 -78c-28 0 -52 5 -88 19l13 28c23 -9 48 -15 69 -15
c30 0 53 19 53 43c0 21 -20 36 -46 36c-12 0 -21 -2 -40 -8l-15 14l43 65c-141 13 -221 98 -220 233z" />
    <glyph glyph-name="Scedilla" unicode="&#xf6c1;" horiz-adv-x="582" 
d="M40 221h65c8 -120 70 -177 191 -177c109 0 175 52 175 138c0 40 -15 68 -46 87s-69 30 -164 49c-85 18 -128 34 -156 59c-30 27 -48 71 -48 119c0 113 88 184 230 184c147 0 224 -64 237 -197h-67c-1 44 -8 65 -29 88c-31 35 -76 52 -141 52c-101 0 -164 -49 -164 -126
c0 -30 11 -57 31 -75c23 -19 60 -32 131 -46c103 -19 143 -31 181 -54c44 -28 70 -76 70 -132c0 -79 -46 -148 -120 -181c-35 -15 -71 -22 -123 -22l-27 -44c14 3 21 4 29 4c41 0 71 -27 71 -63c0 -46 -39 -78 -95 -78c-28 0 -52 5 -88 19l13 28c23 -9 48 -15 69 -15
c30 0 53 19 53 43c0 21 -20 36 -46 36c-12 0 -21 -2 -40 -8l-15 14l43 65c-141 13 -221 98 -220 233z" />
    <glyph glyph-name="Tcaron" unicode="&#x164;" horiz-adv-x="532" 
d="M234 0v610h-217v57h499v-57h-215v-610h-67zM132 852h63l73 -85l67 85h65l-98 -121h-71z" />
    <glyph glyph-name="Uring" unicode="&#x16e;" horiz-adv-x="639" 
d="M73 667h67v-427c0 -69 4 -93 22 -123c28 -46 85 -73 157 -73c83 0 142 33 166 93c10 28 13 50 13 110v420h67v-425c0 -71 -11 -119 -35 -157c-41 -63 -117 -98 -213 -98c-107 0 -190 43 -223 116c-15 32 -21 70 -21 134v430zM321 885c45 0 82 -38 82 -83
c0 -46 -38 -84 -84 -84c-45 0 -83 38 -83 83c0 47 37 84 85 84zM320 848c-26 0 -47 -21 -47 -47c0 -25 21 -46 46 -46c26 0 47 21 47 46c0 26 -21 47 -46 47z" />
    <glyph glyph-name="Uhungarumlaut" unicode="&#x170;" horiz-adv-x="639" 
d="M73 667h67v-427c0 -69 4 -93 22 -123c28 -46 85 -73 157 -73c83 0 142 33 166 93c10 28 13 50 13 110v420h67v-425c0 -71 -11 -119 -35 -157c-41 -63 -117 -98 -213 -98c-107 0 -190 43 -223 116c-15 32 -21 70 -21 134v430zM239 730l68 123h61l-88 -123h-41zM344 730
l68 123h61l-88 -123h-41z" />
    <glyph glyph-name="Zacute" unicode="&#x179;" horiz-adv-x="568" 
d="M541 0h-513v40l430 570h-394v57h469v-56l-417 -554h425v-57zM253 730l68 123h80l-100 -123h-48z" />
    <glyph glyph-name="Zdotaccent" unicode="&#x17b;" horiz-adv-x="568" 
d="M541 0h-513v40l430 570h-394v57h469v-56l-417 -554h425v-57zM263 749v85h68v-85h-68z" />
    <glyph glyph-name="Amacron" unicode="&#x100;" horiz-adv-x="619" 
d="M13 0l262 667h70l261 -667h-70l-80 211h-294l-79 -211h-70zM182 263h256l-129 341zM458 812v-45h-297v45h297z" />
    <glyph glyph-name="Tcommaaccent" unicode="&#x162;" horiz-adv-x="532" 
d="M234 0v610h-217v57h499v-57h-215v-610h-67zM212 -230l15 163h80l-47 -163h-48z" />
    <glyph glyph-name="Tcommaaccent" unicode="&#x21a;" horiz-adv-x="532" 
d="M234 0v610h-217v57h499v-57h-215v-610h-67zM212 -230l15 163h80l-47 -163h-48z" />
    <glyph glyph-name="Emacron" unicode="&#x112;" horiz-adv-x="578" 
d="M80 0v667h448v-57h-381v-241h350v-54h-350v-259h390v-56h-457zM452 812v-45h-297v45h297z" />
    <glyph glyph-name="Imacron" unicode="&#x12a;" horiz-adv-x="228" 
d="M80 0v667h68v-667h-68zM222 812v-45h-216v45h216z" />
    <glyph glyph-name="Iogonek" unicode="&#x12e;" horiz-adv-x="228" 
d="M80 0v667h68v-667c-38 -26 -59 -59 -59 -92c0 -28 19 -45 50 -45c10 0 15 2 29 8v-40c-16 -7 -27 -9 -41 -9c-47 0 -85 35 -85 80c0 34 23 67 69 98h-31z" />
    <glyph glyph-name="Kcommaaccent" unicode="&#x136;" horiz-adv-x="615" 
d="M80 0v667h66v-344l362 344h89l-295 -276l299 -391h-79l-265 348l-111 -104v-244h-66zM253 -230l15 163h80l-47 -163h-48z" />
    <glyph glyph-name="Lcommaaccent" unicode="&#x13b;" horiz-adv-x="511" 
d="M80 0v667h67v-611h347v-56h-414zM201 -230l15 163h80l-47 -163h-48z" />
    <glyph glyph-name="Ncommaaccent" unicode="&#x145;" horiz-adv-x="664" 
d="M80 0v667h66l379 -570v570h59v-667h-66l-379 571v-571h-59zM278 -230l15 163h80l-47 -163h-48z" />
    <glyph glyph-name="Omacron" unicode="&#x14c;" horiz-adv-x="720" 
d="M360 680c109 0 184 -36 239 -114c46 -64 69 -145 69 -239c0 -207 -120 -340 -307 -340c-191 0 -309 132 -309 345c0 88 25 172 69 234c56 78 132 114 239 114zM360 623c-149 0 -241 -110 -241 -288c0 -182 91 -291 242 -291c148 0 240 110 240 287
c0 182 -91 292 -241 292zM505 812v-45h-290v45h290z" />
    <glyph glyph-name="Rcommaaccent" unicode="&#x156;" horiz-adv-x="635" 
d="M80 0v667h270c71 0 112 -7 143 -25c51 -28 80 -85 80 -155c0 -77 -33 -128 -103 -159c68 -38 75 -56 82 -192c7 -105 8 -107 38 -136h-80c-11 32 -13 41 -17 107c-7 109 -19 153 -49 175c-21 16 -41 19 -111 19h-187v-301h-66zM146 355h179c50 0 80 3 103 10
c49 15 78 60 78 123c0 62 -29 103 -83 116c-19 4 -44 6 -96 6h-181v-255zM263 -230l15 163h80l-47 -163h-48z" />
    <glyph glyph-name="Gcommaaccent" unicode="&#x122;" horiz-adv-x="703" 
d="M355 343h281v-343h-51v111c-68 -90 -134 -124 -235 -124c-179 0 -298 138 -298 344c0 211 120 349 305 349c148 0 251 -80 273 -211h-64c-24 101 -95 154 -208 154c-149 0 -239 -108 -239 -288c0 -178 92 -292 237 -292c109 0 194 70 217 178c5 23 5 23 5 68h-223v54z
M297 -230l15 163h80l-47 -163h-48z" />
    <glyph glyph-name="Umacron" unicode="&#x16a;" horiz-adv-x="639" 
d="M73 667h67v-427c0 -69 4 -93 22 -123c28 -46 85 -73 157 -73c83 0 142 33 166 93c10 28 13 50 13 110v420h67v-425c0 -71 -11 -119 -35 -157c-41 -63 -117 -98 -213 -98c-107 0 -190 43 -223 116c-15 32 -21 70 -21 134v430zM467 812v-45h-296v45h296z" />
    <glyph glyph-name="Uogonek" unicode="&#x172;" horiz-adv-x="639" 
d="M73 667h67v-441c0 -66 11 -103 40 -133c32 -32 80 -50 139 -50c61 0 111 19 141 53c27 31 38 70 38 137v434h67v-425c0 -78 -14 -131 -44 -171c-13 -17 -35 -40 -68 -68c-51 -46 -62 -62 -62 -91c0 -28 25 -49 58 -49c13 0 24 2 38 8v-40c-15 -6 -30 -9 -48 -9
c-54 0 -95 35 -95 82c0 35 26 67 81 99c-50 -13 -75 -17 -110 -17c-75 0 -145 25 -187 66c-40 40 -55 90 -55 185v430z" />
    <glyph glyph-name="abreve" unicode="&#x103;" horiz-adv-x="507" 
d="M486 41v-41c-21 -7 -31 -9 -45 -9c-47 0 -65 19 -70 75c-54 -59 -99 -79 -174 -79c-97 0 -154 51 -154 137c0 40 12 74 36 98c27 28 54 39 121 49l119 18c51 7 54 10 54 59c0 66 -37 94 -122 94c-82 0 -117 -30 -123 -105h-65c7 101 72 156 187 156c76 0 135 -23 162 -63
c16 -24 19 -43 19 -106v-240c0 -36 7 -47 29 -47c7 0 13 1 26 4zM371 248l-164 -25c-74 -12 -104 -39 -104 -96c0 -56 39 -89 103 -89c58 0 109 23 140 64c19 24 25 52 25 108v38zM350 686h40c-12 -77 -60 -119 -137 -119c-76 0 -128 46 -133 119h40c11 -49 42 -73 95 -73
c54 0 83 22 95 73z" />
    <glyph glyph-name="aogonek" unicode="&#x105;" horiz-adv-x="507" 
d="M509 -129v-40c-14 -6 -30 -9 -48 -9c-53 0 -94 35 -94 81c0 35 25 69 66 89c-42 1 -58 21 -62 74c-54 -59 -99 -79 -174 -79c-97 0 -154 51 -154 137c0 40 12 74 36 98c27 28 54 39 121 49l119 18c51 7 54 10 54 59c0 66 -37 94 -123 94c-82 0 -116 -29 -122 -105h-65
c7 102 71 156 186 156c77 0 136 -23 162 -63c17 -24 20 -43 20 -106v-240c0 -37 7 -48 29 -48c7 0 13 1 26 5v-41c-46 -25 -72 -57 -72 -88c0 -28 24 -49 58 -49c13 0 23 2 37 8zM371 248l-164 -25c-74 -12 -104 -39 -104 -96c0 -56 39 -89 103 -89c43 0 81 12 113 36
c40 31 52 63 52 136v38z" />
    <glyph glyph-name="cacute" unicode="&#x107;" horiz-adv-x="494" 
d="M400 165h59c-27 -117 -96 -178 -201 -178c-128 0 -212 98 -212 247c0 156 89 259 224 259c105 0 175 -61 190 -164h-60c-8 72 -54 111 -129 111c-102 0 -164 -76 -164 -202c0 -121 62 -198 159 -198c75 0 125 46 134 125zM224 567l68 123h80l-100 -123h-48z" />
    <glyph glyph-name="ccaron" unicode="&#x10d;" horiz-adv-x="494" 
d="M400 165h59c-27 -117 -96 -178 -201 -178c-128 0 -212 98 -212 247c0 156 89 259 224 259c105 0 175 -61 190 -164h-60c-8 72 -54 111 -129 111c-102 0 -164 -76 -164 -202c0 -121 62 -198 159 -198c75 0 125 46 134 125zM132 689h63l73 -86l67 86h65l-98 -122h-71z" />
    <glyph glyph-name="dcaron" unicode="&#x10f;" horiz-adv-x="597" 
d="M474 0h-60v66c-50 -57 -93 -79 -156 -79c-127 0 -212 102 -212 255c0 154 80 251 208 251c66 0 111 -24 160 -84v258h60v-667zM254 442c-95 0 -148 -71 -148 -197c0 -128 60 -208 156 -208c50 0 95 25 122 68c21 34 30 74 30 132c0 68 -10 109 -35 144
c-28 38 -75 61 -125 61zM511 510l15 157h80l-47 -157h-48z" />
    <glyph glyph-name="ecaron" unicode="&#x11b;" horiz-adv-x="511" 
d="M404 150h61c-16 -41 -26 -61 -43 -85c-36 -49 -96 -78 -165 -78c-131 0 -211 93 -211 245c0 158 84 261 215 261c99 0 168 -55 192 -151c6 -25 8 -43 12 -111h-362c1 -125 57 -194 156 -194c76 0 127 39 145 113zM106 282h298c-5 103 -55 161 -141 161
c-51 0 -97 -23 -124 -64c-18 -28 -26 -50 -33 -97zM131 689h63l73 -86l67 86h65l-98 -122h-71z" />
    <glyph glyph-name="edotaccent" unicode="&#x117;" horiz-adv-x="511" 
d="M404 150h61c-16 -41 -26 -61 -43 -85c-36 -49 -96 -78 -165 -78c-131 0 -211 93 -211 245c0 158 84 261 215 261c99 0 168 -55 192 -151c6 -25 8 -43 12 -111h-362c1 -125 57 -194 156 -194c76 0 127 39 145 113zM106 282h298c-5 103 -55 161 -141 161
c-51 0 -97 -23 -124 -64c-18 -28 -26 -50 -33 -97zM231 584v85h68v-85h-68z" />
    <glyph glyph-name="eogonek" unicode="&#x119;" horiz-adv-x="511" 
d="M400 -129v-40c-15 -6 -30 -9 -48 -9c-54 0 -95 35 -95 81c0 37 25 68 75 95c-36 -9 -53 -11 -77 -11c-129 0 -209 94 -209 245c0 158 84 261 215 261c99 0 168 -55 192 -151c6 -25 8 -43 11 -111h-361c1 -125 56 -194 156 -194c76 0 127 39 145 113h60
c-23 -62 -45 -97 -93 -142c-54 -52 -67 -70 -67 -95c0 -30 24 -50 58 -50c13 0 24 2 38 8zM106 282h298c-5 103 -56 161 -141 161c-51 0 -97 -23 -124 -64c-18 -28 -26 -50 -33 -97z" />
    <glyph glyph-name="gbreve" unicode="&#x11f;" horiz-adv-x="546" 
d="M473 480v-399c0 -87 -7 -130 -25 -164c-33 -59 -101 -91 -191 -91c-110 0 -175 44 -188 127h61c2 -22 7 -34 21 -47c21 -20 67 -34 111 -34c51 0 96 18 121 51c22 27 27 51 29 134l1 24c-52 -60 -91 -80 -157 -80c-128 0 -210 96 -210 245c0 147 85 247 210 247
c67 0 116 -26 157 -81v68h60zM263 443c-97 0 -158 -76 -158 -197c0 -122 59 -196 156 -196c98 0 156 74 156 198c0 125 -55 195 -154 195zM361 686h40c-12 -77 -60 -119 -137 -119c-76 0 -128 46 -133 119h40c11 -49 42 -73 95 -73c54 0 83 22 95 73z" />
    <glyph glyph-name="lacute" unicode="&#x13a;" horiz-adv-x="207" 
d="M73 0v667h60v-667h-60zM69 730l65 123h77l-94 -123h-48z" />
    <glyph glyph-name="lcaron" unicode="&#x13e;" horiz-adv-x="273" 
d="M73 0v667h60v-667h-60zM181 510l15 157h80l-47 -157h-48z" />
    <glyph glyph-name="nacute" unicode="&#x144;" horiz-adv-x="526" 
d="M73 0v480h60v-58c47 53 86 71 154 71c80 0 134 -32 155 -92c7 -22 10 -45 10 -91v-310h-60v307c0 48 -3 65 -12 84c-17 33 -54 52 -102 52c-62 0 -111 -31 -133 -84c-9 -24 -12 -44 -12 -93v-266h-60zM215 567l68 123h80l-100 -123h-48z" />
    <glyph glyph-name="ncaron" unicode="&#x148;" horiz-adv-x="526" 
d="M73 0v480h60v-58c47 53 86 71 154 71c80 0 134 -32 155 -92c7 -22 10 -45 10 -91v-310h-60v307c0 48 -3 65 -12 84c-17 33 -54 52 -102 52c-62 0 -111 -31 -133 -84c-9 -24 -12 -44 -12 -93v-266h-60zM122 689h63l73 -86l67 86h65l-98 -122h-71z" />
    <glyph glyph-name="ohungarumlaut" unicode="&#x151;" horiz-adv-x="535" 
d="M268 493c133 0 221 -103 221 -259c0 -152 -85 -247 -221 -247c-138 0 -222 94 -222 250c0 153 89 256 222 256zM268 442c-100 0 -162 -79 -162 -205s59 -199 162 -199c101 0 161 73 161 196c0 129 -62 208 -161 208zM187 567l68 123h61l-88 -123h-41zM292 567l68 123h61
l-88 -123h-41z" />
    <glyph glyph-name="racute" unicode="&#x155;" horiz-adv-x="316" 
d="M73 0v480h60v-80c37 65 73 88 134 88c8 0 14 -1 24 -3v-58c-9 1 -17 2 -21 2c-50 0 -97 -35 -120 -89c-13 -30 -17 -56 -17 -115v-225h-60zM125 567l68 123h80l-100 -123h-48z" />
    <glyph glyph-name="sacute" unicode="&#x15b;" horiz-adv-x="455" 
d="M40 151h60c6 -75 52 -112 138 -112c74 0 119 36 119 94c0 31 -14 48 -51 63c-22 9 -32 11 -126 32c-88 19 -127 58 -127 126c0 86 67 139 175 139c110 0 169 -49 180 -150h-59c-13 70 -46 95 -125 95c-69 0 -111 -29 -111 -78c0 -27 14 -49 38 -61c20 -9 26 -11 101 -28
c68 -16 89 -23 114 -38c33 -19 51 -52 51 -96c0 -92 -72 -150 -186 -150c-121 0 -191 60 -191 164zM191 567l68 123h80l-100 -123h-48z" />
    <glyph glyph-name="scommaaccent" unicode="&#x219;" horiz-adv-x="455" 
d="M40 151h60c6 -75 52 -112 138 -112c74 0 119 36 119 94c0 31 -14 48 -51 63c-22 9 -32 11 -126 32c-88 19 -127 58 -127 126c0 86 67 139 175 139c110 0 169 -49 180 -150h-59c-13 70 -46 95 -125 95c-69 0 -111 -29 -111 -78c0 -27 14 -49 38 -61c20 -9 26 -11 101 -28
c68 -16 89 -23 114 -38c33 -19 51 -52 51 -96c0 -92 -72 -150 -186 -150c-121 0 -191 60 -191 164zM153 -223l48 156h74l-74 -156h-48z" />
    <glyph glyph-name="tcaron" unicode="&#x165;" horiz-adv-x="271" 
d="M222 50v-39c-21 -10 -38 -14 -61 -14c-37 0 -63 16 -71 45c-4 12 -4 17 -4 64v324h-69v50h69v142h60v-142h76v-50h-76v-338c0 -25 1 -30 5 -37c6 -9 19 -15 33 -15c11 0 21 3 38 10zM201 537l15 157h80l-47 -157h-48z" />
    <glyph glyph-name="uring" unicode="&#x16f;" horiz-adv-x="526" 
d="M452 480v-480h-60v58c-47 -53 -86 -71 -154 -71c-80 0 -134 32 -155 92c-8 24 -10 42 -10 104v297h60v-300c0 -57 2 -70 12 -91c17 -33 54 -52 102 -52c49 0 90 19 116 54c20 28 29 60 29 109v280h60zM264 712c45 0 82 -38 82 -83c0 -46 -38 -84 -84 -84
c-45 0 -83 38 -83 83c0 47 37 84 85 84zM263 676c-26 0 -47 -21 -47 -47s21 -47 46 -47c26 0 47 21 47 47s-21 47 -46 47z" />
    <glyph glyph-name="uhungarumlaut" unicode="&#x171;" horiz-adv-x="526" 
d="M452 480v-480h-60v58c-47 -53 -86 -71 -154 -71c-80 0 -134 32 -155 92c-8 24 -10 42 -10 104v297h60v-300c0 -57 2 -70 12 -91c17 -33 54 -52 102 -52c49 0 90 19 116 54c20 28 29 60 29 109v280h60zM176 567l68 123h61l-88 -123h-41zM281 567l68 123h61l-88 -123h-41z
" />
    <glyph glyph-name="zacute" unicode="&#x17a;" horiz-adv-x="428" 
d="M411 0h-382v44l294 382h-272v54h348v-41l-292 -385h304v-54zM186 567l68 123h80l-100 -123h-48z" />
    <glyph glyph-name="zdotaccent" unicode="&#x17c;" horiz-adv-x="428" 
d="M411 0h-382v44l294 382h-272v54h348v-41l-292 -385h304v-54zM193 584v85h68v-85h-68z" />
    <glyph glyph-name="tcommaaccent" unicode="&#x163;" horiz-adv-x="258" 
d="M222 50v-39c-21 -10 -38 -14 -61 -14c-37 0 -63 16 -71 45c-4 12 -4 17 -4 64v324h-69v50h69v142h60v-142h76v-50h-76v-338c0 -25 1 -30 5 -37c6 -9 19 -15 33 -15c11 0 21 3 38 10zM75 -223l48 156h74l-74 -156h-48z" />
    <glyph glyph-name="tcommaaccent" unicode="&#x21b;" horiz-adv-x="258" 
d="M222 50v-39c-21 -10 -38 -14 -61 -14c-37 0 -63 16 -71 45c-4 12 -4 17 -4 64v324h-69v50h69v142h60v-142h76v-50h-76v-338c0 -25 1 -30 5 -37c6 -9 19 -15 33 -15c11 0 21 3 38 10zM75 -223l48 156h74l-74 -156h-48z" />
    <glyph glyph-name="amacron" unicode="&#x101;" horiz-adv-x="507" 
d="M486 41v-41c-21 -7 -31 -9 -45 -9c-47 0 -65 19 -70 75c-54 -59 -99 -79 -174 -79c-97 0 -154 51 -154 137c0 40 12 74 36 98c27 28 54 39 121 49l119 18c51 7 54 10 54 59c0 66 -37 94 -122 94c-82 0 -117 -30 -123 -105h-65c7 101 72 156 187 156c76 0 135 -23 162 -63
c16 -24 19 -43 19 -106v-240c0 -36 7 -47 29 -47c7 0 13 1 26 4zM371 248l-164 -25c-74 -12 -104 -39 -104 -96c0 -56 39 -89 103 -89c58 0 109 23 140 64c19 24 25 52 25 108v38zM390 649v-45h-270v45h270z" />
    <glyph glyph-name="emacron" unicode="&#x113;" horiz-adv-x="511" 
d="M404 150h61c-16 -41 -26 -61 -43 -85c-36 -49 -96 -78 -165 -78c-131 0 -211 93 -211 245c0 158 84 261 215 261c99 0 168 -55 192 -151c6 -25 8 -43 12 -111h-362c1 -125 57 -194 156 -194c76 0 127 39 145 113zM106 282h298c-5 103 -55 161 -141 161
c-51 0 -97 -23 -124 -64c-18 -28 -26 -50 -33 -97zM400 649v-45h-270v45h270z" />
    <glyph glyph-name="imacron" unicode="&#x12b;" horiz-adv-x="207" 
d="M73 0v480h61v-480h-61zM205 649v-45h-203v45h203z" />
    <glyph glyph-name="kcommaaccent" unicode="&#x137;" horiz-adv-x="489" 
d="M73 0v667h60v-411l236 224h82l-191 -176l208 -304h-74l-175 266l-86 -79v-187h-60zM170 -223l48 156h74l-74 -156h-48z" />
    <glyph glyph-name="lcommaaccent" unicode="&#x13c;" horiz-adv-x="207" 
d="M73 0v667h60v-667h-60zM16 -223l48 156h74l-74 -156h-48z" />
    <glyph glyph-name="ncommaaccent" unicode="&#x146;" horiz-adv-x="526" 
d="M73 0v480h60v-58c47 53 86 71 154 71c80 0 134 -32 155 -92c7 -22 10 -45 10 -91v-310h-60v307c0 48 -3 65 -12 84c-17 33 -54 52 -102 52c-62 0 -111 -31 -133 -84c-9 -24 -12 -44 -12 -93v-266h-60zM188 -223l48 156h74l-74 -156h-48z" />
    <glyph glyph-name="omacron" unicode="&#x14d;" horiz-adv-x="535" 
d="M268 493c133 0 221 -103 221 -259c0 -152 -85 -247 -221 -247c-138 0 -222 94 -222 250c0 153 89 256 222 256zM268 442c-100 0 -162 -79 -162 -205s59 -199 162 -199c101 0 161 73 161 196c0 129 -62 208 -161 208zM403 649v-45h-270v45h270z" />
    <glyph glyph-name="rcommaaccent" unicode="&#x157;" horiz-adv-x="316" 
d="M73 0v480h60v-80c38 65 73 88 135 88c8 0 14 -1 24 -3v-58c-9 1 -17 2 -21 2c-51 0 -98 -35 -121 -89c-13 -30 -17 -56 -17 -115v-225h-60zM17 -223l48 156h74l-74 -156h-48z" />
    <glyph glyph-name="umacron" unicode="&#x16b;" horiz-adv-x="526" 
d="M452 480v-480h-60v58c-47 -53 -86 -71 -154 -71c-80 0 -134 32 -155 92c-8 24 -10 42 -10 104v297h60v-300c0 -57 2 -70 12 -91c17 -33 54 -52 102 -52c49 0 90 19 116 54c20 28 29 60 29 109v280h60zM398 649v-45h-270v45h270z" />
    <glyph glyph-name="uogonek" unicode="&#x173;" horiz-adv-x="526" 
d="M472 -129v-40c-15 -6 -30 -9 -48 -9c-54 0 -95 35 -95 81c0 40 29 74 83 97h-20v58c-47 -53 -86 -71 -154 -71c-80 0 -134 32 -155 92c-8 24 -10 41 -10 104v297h60v-300c0 -60 2 -72 12 -91c17 -33 54 -52 102 -52c92 0 145 60 145 163v280h60v-480
c-35 -20 -39 -23 -49 -34c-19 -18 -27 -35 -27 -53c0 -29 24 -50 58 -50c13 0 24 2 38 8z" />
    <glyph glyph-name="rcaron" unicode="&#x159;" horiz-adv-x="316" 
d="M73 0v480h60v-80c37 65 73 88 134 88c8 0 14 -1 24 -3v-58c-9 1 -17 2 -21 2c-50 0 -97 -35 -120 -89c-13 -30 -17 -56 -17 -115v-225h-60zM15 689h63l73 -86l67 86h65l-98 -122h-71z" />
    <glyph glyph-name="scedilla" unicode="&#x15f;" horiz-adv-x="455" 
d="M237 -13l-27 -44c14 3 21 4 29 4c41 0 71 -27 71 -63c0 -46 -39 -78 -95 -78c-28 0 -52 5 -88 19l13 28c23 -9 48 -15 69 -15c30 0 53 19 53 43c0 21 -20 36 -46 36c-12 0 -22 -2 -40 -8l-15 14l36 65c-3 1 -5 2 -6 2l-54 13c-56 14 -100 81 -97 148h60
c6 -75 52 -112 138 -112c74 0 119 36 119 94c0 31 -14 48 -51 63c-22 9 -32 11 -126 32c-88 19 -127 58 -127 126c0 86 67 139 175 139c110 0 169 -49 180 -150h-59c-13 70 -46 95 -125 95c-69 0 -111 -29 -111 -78c0 -27 14 -50 38 -61c20 -9 29 -12 101 -28
c69 -16 88 -23 114 -38c33 -19 51 -53 51 -96c0 -61 -35 -112 -92 -135c-25 -9 -50 -14 -88 -15z" />
    <glyph glyph-name="scedilla" unicode="&#xf6c2;" horiz-adv-x="455" 
d="M237 -13l-27 -44c14 3 21 4 29 4c41 0 71 -27 71 -63c0 -46 -39 -78 -95 -78c-28 0 -52 5 -88 19l13 28c23 -9 48 -15 69 -15c30 0 53 19 53 43c0 21 -20 36 -46 36c-12 0 -22 -2 -40 -8l-15 14l36 65c-3 1 -5 2 -6 2l-54 13c-56 14 -100 81 -97 148h60
c6 -75 52 -112 138 -112c74 0 119 36 119 94c0 31 -14 48 -51 63c-22 9 -32 11 -126 32c-88 19 -127 58 -127 126c0 86 67 139 175 139c110 0 169 -49 180 -150h-59c-13 70 -46 95 -125 95c-69 0 -111 -29 -111 -78c0 -27 14 -50 38 -61c20 -9 29 -12 101 -28
c69 -16 88 -23 114 -38c33 -19 51 -53 51 -96c0 -61 -35 -112 -92 -135c-25 -9 -50 -14 -88 -15z" />
    <glyph glyph-name="gcommaaccent" unicode="&#x123;" horiz-adv-x="546" 
d="M473 480v-399c0 -87 -7 -130 -25 -164c-33 -59 -101 -91 -191 -91c-110 0 -175 44 -188 127h61c2 -22 7 -34 21 -47c21 -20 67 -34 111 -34c51 0 96 18 121 51c22 27 27 51 29 134l1 24c-52 -60 -91 -80 -157 -80c-128 0 -210 96 -210 245c0 147 85 247 210 247
c67 0 116 -26 157 -81v68h60zM263 443c-97 0 -158 -76 -158 -197c0 -122 59 -196 156 -196c98 0 156 74 156 198c0 125 -55 195 -154 195zM334 723l-48 -156h-74l74 156h48z" />
    <glyph glyph-name="iogonek" unicode="&#x12f;" horiz-adv-x="207" 
d="M155 -129v-40c-18 -7 -27 -9 -38 -9c-45 0 -82 36 -82 79c0 35 17 60 69 99h-30v480h60v-480c-3 -3 -5 -6 -8 -8c-33 -34 -44 -55 -44 -84c0 -26 18 -45 44 -45c8 0 15 2 29 8zM74 586v81h61v-81h-61z" />
    <glyph glyph-name="Scommaaccent" unicode="&#x218;" horiz-adv-x="582" 
d="M40 221h65c8 -120 70 -177 191 -177c109 0 175 52 175 138c0 40 -15 69 -46 87c-31 19 -69 30 -164 49c-85 18 -128 34 -156 59c-30 27 -48 71 -48 119c0 113 88 184 230 184c147 0 224 -64 237 -197h-67c-1 44 -8 65 -29 88c-31 35 -76 52 -141 52
c-101 0 -164 -48 -164 -126c0 -68 39 -98 162 -121c103 -19 143 -31 181 -54c44 -27 70 -76 70 -132c0 -121 -98 -203 -241 -203c-97 0 -173 33 -215 93c-28 40 -39 78 -40 141zM237 -230l15 163h80l-47 -163h-48z" />
    <glyph glyph-name="Dcroat" unicode="&#x110;" horiz-adv-x="662" 
d="M80 325h-73v54h73v288h222c105 0 144 -8 187 -36c79 -53 121 -153 121 -291c0 -149 -47 -256 -135 -307c-42 -25 -84 -33 -170 -33h-225v325zM148 325v-268h152c83 0 119 9 155 39c56 46 88 136 88 246c0 120 -39 210 -107 246c-32 17 -62 22 -138 22h-150v-231h209v-54
h-209z" />
    <glyph glyph-name="dcroat" unicode="&#x111;" horiz-adv-x="547" 
d="M474 0h-60v66c-50 -57 -93 -79 -156 -79c-127 0 -212 102 -212 255c0 154 80 251 208 251c66 0 111 -24 160 -84v131h-160v47h160v80h60v-80h67v-47h-67v-540zM254 442c-95 0 -148 -71 -148 -197c0 -128 60 -208 156 -208c50 0 95 25 122 68c21 34 30 74 30 132
c0 68 -10 109 -35 144c-28 38 -75 61 -125 61z" />
    <glyph glyph-name="middot" unicode="&#xe000;" horiz-adv-x="217" 
d="M73 208v83h70v-83h-70z" />
    <glyph glyph-name="commaaccent" unicode="&#xf6c3;" horiz-adv-x="500" 
d="M176 -223l48 156h74l-74 -156h-48z" />
    <glyph glyph-name="nbspace" unicode="&#xe001;" horiz-adv-x="250" 
 />
    <glyph glyph-name="lozenge" unicode="&#x25ca;" horiz-adv-x="667" 
d="M334 693l259 -360l-259 -359l-260 359zM334 604l-197 -271l197 -270l197 270z" />
    <glyph glyph-name="Delta" unicode="&#x394;" horiz-adv-x="616" 
d="M6 0l270 667h64l271 -667h-605zM87 54h442l-221 546z" />
    <glyph glyph-name="Delta" unicode="&#x2206;" horiz-adv-x="616" 
d="M6 0l270 667h64l271 -667h-605zM87 54h442l-221 546z" />
    <glyph glyph-name="notequal" unicode="&#x2260;" horiz-adv-x="500" 
d="M274 438l55 114l43 -16l-47 -98h142v-53h-167l-46 -98h213v-53h-238l-57 -119l-43 16l49 103h-145v53h170l46 98h-216v53h241z" />
    <glyph glyph-name="radical" unicode="&#x221a;" horiz-adv-x="667" 
d="M667 827v-52h-198l-235 -775h-66l-90 302h-78v52h116l45 -147c11 -40 23 -85 36 -134h2c4 13 12 44 26 92c18 67 46 159 81 274l117 388h244z" />
    <glyph glyph-name="lessequal" unicode="&#x2264;" horiz-adv-x="500" 
d="M466 585v-62l-362 -145l362 -145v-62l-433 179v57zM466 142v-57h-433v57h433z" />
    <glyph glyph-name="greaterequal" unicode="&#x2265;" horiz-adv-x="500" 
d="M33 585l433 -179v-56l-433 -179v62l362 145l-362 145v62zM33 142h433v-57h-433v57z" />
    <glyph glyph-name="summation" unicode="&#x2211;" horiz-adv-x="667" 
d="M592 750v-224h-57l-5 166h-428l251 -422l-250 -463h436l3 166h59v-223h-567v67l246 453l-246 415v65h558z" />
    <glyph glyph-name="partialdiff" unicode="&#x2202;" horiz-adv-x="500" 
d="M92 621l7 50c107 -15 176 -46 238 -104c82 -78 129 -198 129 -329c0 -70 -15 -123 -46 -166c-40 -53 -103 -85 -171 -85c-119 0 -214 101 -214 228c0 124 93 220 211 220c42 0 84 -13 109 -34c13 -11 21 -20 43 -48c-32 96 -49 125 -106 179c-59 50 -121 77 -200 89z
M259 387c-95 0 -166 -75 -166 -175c0 -96 72 -174 161 -174s155 77 155 179c0 99 -63 170 -150 170z" />
    </font>
</defs>
</svg>
